<svg xmlns="http://www.w3.org/2000/svg" xmlns:xlink="http://www.w3.org/1999/xlink" zoomAndPan="magnify" preserveAspectRatio="xMidYMid meet" version="1.0" viewBox="78.09 105.42 218.75 156.16"><defs><g/><clipPath id="b3438c5993"><path d="M 142.019531 153 L 153 153 L 153 222.417969 L 142.019531 222.417969 Z M 142.019531 153 " clip-rule="nonzero"/></clipPath><clipPath id="8853e43c3e"><path d="M 222 153 L 232.769531 153 L 232.769531 221 L 222 221 Z M 222 153 " clip-rule="nonzero"/></clipPath><clipPath id="9ff5e2a580"><path d="M 154 105.417969 L 221 105.417969 L 221 202 L 154 202 Z M 154 105.417969 " clip-rule="nonzero"/></clipPath></defs><g clip-path="url(#b3438c5993)"><path fill="#0d83b8" d="M 142.023438 160.820312 L 142.023438 181.078125 L 148.988281 188.046875 L 148.988281 217.96875 C 148.03125 218.234375 147.324219 219.105469 147.324219 220.148438 C 147.324219 221.398438 148.339844 222.417969 149.589844 222.417969 C 150.84375 222.417969 151.859375 221.398438 151.859375 220.148438 C 151.859375 219.105469 151.152344 218.234375 150.195312 217.96875 L 150.195312 187.546875 L 143.230469 180.578125 L 143.230469 160.820312 C 143.230469 157.355469 146.046875 154.539062 149.507812 154.539062 L 152.589844 154.539062 L 152.589844 153.328125 L 149.507812 153.328125 C 145.378906 153.328125 142.023438 156.6875 142.023438 160.820312 " fill-opacity="1" fill-rule="nonzero"/></g><path fill="#0d83b8" d="M 170.617188 188.804688 C 169.699219 189.058594 169.023438 189.890625 169.023438 190.886719 C 169.023438 192.085938 169.996094 193.054688 171.191406 193.054688 C 172.390625 193.054688 173.359375 192.085938 173.359375 190.886719 C 173.359375 189.890625 172.683594 189.058594 171.769531 188.804688 L 171.769531 154.511719 L 177.535156 154.511719 L 177.535156 175.316406 L 174.539062 178.316406 L 174.539062 204.675781 C 173.582031 204.945312 172.875 205.8125 172.875 206.855469 C 172.875 208.109375 173.890625 209.125 175.140625 209.125 C 176.394531 209.125 177.410156 208.109375 177.410156 206.855469 C 177.410156 205.8125 176.703125 204.945312 175.746094 204.675781 L 175.746094 178.816406 L 178.742188 175.816406 L 178.742188 154.511719 L 181.734375 154.511719 L 181.734375 184.03125 C 180.773438 184.296875 180.066406 185.167969 180.066406 186.210938 C 180.066406 187.464844 181.082031 188.480469 182.335938 188.480469 C 183.589844 188.480469 184.605469 187.464844 184.605469 186.210938 C 184.605469 185.167969 183.898438 184.296875 182.941406 184.03125 L 182.941406 154.511719 L 193.679688 154.511719 L 193.679688 169.160156 L 187.1875 175.652344 L 187.1875 192.402344 C 186.230469 192.667969 185.523438 193.535156 185.523438 194.578125 C 185.523438 195.832031 186.539062 196.851562 187.792969 196.851562 C 189.046875 196.851562 190.0625 195.832031 190.0625 194.578125 C 190.0625 193.535156 189.355469 192.667969 188.394531 192.402344 L 188.394531 176.152344 L 194.882812 169.660156 L 194.882812 154.511719 L 203.03125 154.511719 L 203.03125 166.664062 L 194.996094 175.476562 L 194.996094 182.53125 C 194.078125 182.785156 193.402344 183.613281 193.402344 184.613281 C 193.402344 185.808594 194.375 186.78125 195.570312 186.78125 C 196.769531 186.78125 197.738281 185.808594 197.738281 184.613281 C 197.738281 183.613281 197.0625 182.785156 196.148438 182.53125 L 196.148438 175.921875 L 204.183594 167.113281 L 204.183594 153.355469 L 170.617188 153.355469 L 170.617188 188.804688 " fill-opacity="1" fill-rule="nonzero"/><g clip-path="url(#8853e43c3e)"><path fill="#0d83b8" d="M 232.777344 186.800781 L 232.777344 160.820312 C 232.777344 156.6875 229.417969 153.328125 225.292969 153.328125 L 222.414062 153.328125 L 222.414062 154.539062 L 225.292969 154.539062 C 228.753906 154.539062 231.570312 157.355469 231.570312 160.820312 L 231.570312 186.300781 L 224.660156 193.214844 L 224.660156 216.308594 C 223.703125 216.574219 222.996094 217.441406 222.996094 218.484375 C 222.996094 219.738281 224.011719 220.753906 225.265625 220.753906 C 226.515625 220.753906 227.53125 219.738281 227.53125 218.484375 C 227.53125 217.441406 226.824219 216.574219 225.867188 216.308594 L 225.867188 193.714844 L 232.777344 186.800781 " fill-opacity="1" fill-rule="nonzero"/></g><g clip-path="url(#9ff5e2a580)"><path fill="#0d83b8" d="M 187.398438 105.421875 C 169.09375 105.421875 154.203125 120.324219 154.203125 138.640625 L 154.203125 185.4375 L 157.972656 189.210938 L 157.972656 195.816406 C 157.015625 196.082031 156.308594 196.953125 156.308594 197.996094 C 156.308594 199.246094 157.324219 200.265625 158.574219 200.265625 C 159.828125 200.265625 160.84375 199.246094 160.84375 197.996094 C 160.84375 196.953125 160.136719 196.082031 159.179688 195.816406 L 159.179688 188.710938 L 155.410156 184.9375 L 155.410156 138.640625 C 155.410156 120.988281 169.761719 106.628906 187.398438 106.628906 C 205.039062 106.628906 219.390625 120.988281 219.390625 138.640625 L 219.390625 184.9375 L 215.628906 188.699219 L 215.628906 197.292969 C 214.671875 197.558594 213.964844 198.429688 213.964844 199.472656 C 213.964844 200.726562 214.980469 201.742188 216.234375 201.742188 C 217.484375 201.742188 218.5 200.726562 218.5 199.472656 C 218.5 198.429688 217.796875 197.558594 216.835938 197.292969 L 216.835938 189.199219 L 220.597656 185.4375 L 220.597656 138.640625 C 220.597656 120.324219 205.703125 105.421875 187.398438 105.421875 " fill-opacity="1" fill-rule="nonzero"/></g><path fill="#0d83b8" d="M 211.234375 188.710938 L 211.234375 175.566406 L 208.175781 172.507812 L 208.175781 138.640625 C 208.175781 127.175781 198.855469 117.851562 187.398438 117.851562 C 175.945312 117.851562 166.625 127.175781 166.625 138.640625 L 166.625 172.507812 L 161.730469 177.40625 L 161.730469 180.585938 C 160.773438 180.851562 160.066406 181.722656 160.066406 182.765625 C 160.066406 184.019531 161.082031 185.035156 162.332031 185.035156 C 163.585938 185.035156 164.601562 184.019531 164.601562 182.765625 C 164.601562 181.722656 163.894531 180.851562 162.9375 180.585938 L 162.9375 177.90625 L 167.832031 173.007812 L 167.832031 138.640625 C 167.832031 127.84375 176.609375 119.058594 187.398438 119.058594 C 198.191406 119.058594 206.96875 127.84375 206.96875 138.640625 L 206.96875 173.007812 L 210.027344 176.066406 L 210.027344 188.710938 C 209.070312 188.976562 208.363281 189.84375 208.363281 190.886719 C 208.363281 192.140625 209.378906 193.15625 210.632812 193.15625 C 211.882812 193.15625 212.898438 192.140625 212.898438 190.886719 C 212.898438 189.84375 212.191406 188.976562 211.234375 188.710938 " fill-opacity="1" fill-rule="nonzero"/><g fill="#0c83b8" fill-opacity="1"><g transform="translate(86.994419, 238.01096)"><g><path d="M 3.515625 -13.5 L 8.3125 -13.5 L 8.3125 -12.0625 L 7.484375 -12.0625 L 10.65625 -1.4375 L 11.5625 -1.4375 L 11.5625 0 L 7.734375 0 L 7.734375 -1.4375 L 9 -1.4375 L 8.171875 -4.21875 L 3.65625 -4.21875 L 2.828125 -1.4375 L 4.09375 -1.4375 L 4.09375 0 L 0.265625 0 L 0.265625 -1.4375 L 1.171875 -1.4375 L 4.34375 -12.0625 L 3.515625 -12.0625 Z M 5.90625 -11.796875 L 4.09375 -5.65625 L 7.734375 -5.65625 Z M 5.90625 -11.796875 "/></g></g></g><g fill="#0c83b8" fill-opacity="1"><g transform="translate(98.820388, 238.01096)"><g><path d="M 1.4375 -11.703125 L 8.640625 -11.703125 L 10.515625 -9.71875 L 10.515625 -7.203125 L 9.546875 -6.171875 L 10.875 -4.78125 L 10.875 -1.984375 L 9 0 L 1.4375 0 L 1.4375 -1.4375 L 2.703125 -1.4375 L 2.703125 -10.265625 L 1.4375 -10.265625 Z M 4.359375 -5.328125 L 4.359375 -1.546875 L 8.28125 -1.546875 L 9.328125 -2.609375 L 9.328125 -4.15625 L 8.1875 -5.328125 Z M 4.359375 -10.15625 L 4.359375 -6.765625 L 7.921875 -6.765625 L 8.96875 -7.828125 L 8.96875 -9.09375 L 7.9375 -10.15625 Z M 4.359375 -10.15625 "/></g></g></g><g fill="#0c83b8" fill-opacity="1"><g transform="translate(111.132353, 238.01096)"><g><path d="M 1.4375 -11.703125 L 5.609375 -11.703125 L 5.609375 -10.265625 L 4.359375 -10.265625 L 4.359375 -6.5625 L 9.90625 -6.5625 L 9.90625 -10.265625 L 8.640625 -10.265625 L 8.640625 -11.703125 L 12.8125 -11.703125 L 12.8125 -10.265625 L 11.5625 -10.265625 L 11.5625 -1.4375 L 12.8125 -1.4375 L 12.8125 0 L 8.640625 0 L 8.640625 -1.4375 L 9.90625 -1.4375 L 9.90625 -5.125 L 4.359375 -5.125 L 4.359375 -1.4375 L 5.609375 -1.4375 L 5.609375 0 L 1.4375 0 L 1.4375 -1.4375 L 2.703125 -1.4375 L 2.703125 -10.265625 L 1.4375 -10.265625 Z M 1.4375 -11.703125 "/></g></g></g><g fill="#0c83b8" fill-opacity="1"><g transform="translate(125.388314, 238.01096)"><g><path d="M 7.734375 0 L 7.734375 -1.4375 L 8.921875 -1.4375 L 8.15625 -3.671875 L 3.65625 -3.671875 L 2.875 -1.4375 L 4.09375 -1.4375 L 4.09375 0 L 0.265625 0 L 0.265625 -1.4375 L 1.21875 -1.4375 L 4.265625 -10.265625 L 3.515625 -10.265625 L 3.515625 -11.703125 L 8.3125 -11.703125 L 8.3125 -10.265625 L 7.546875 -10.265625 L 10.578125 -1.4375 L 11.5625 -1.4375 L 11.5625 0 Z M 5.90625 -10.203125 L 4.140625 -5.109375 L 7.671875 -5.109375 Z M 5.90625 -10.203125 "/></g></g></g><g fill="#0c83b8" fill-opacity="1"><g transform="translate(135.954289, 238.01096)"><g><path d="M 7.921875 0 L 3.03125 0 L 3.03125 -1.4375 L 4.640625 -1.4375 L 4.640625 -3.671875 L 1.515625 -10.265625 L 0.359375 -10.265625 L 0.359375 -11.703125 L 4.171875 -11.703125 L 4.171875 -10.265625 L 3.09375 -10.265625 L 5.453125 -5.28125 L 7.828125 -10.265625 L 6.75 -10.265625 L 6.75 -11.703125 L 10.5625 -11.703125 L 10.5625 -10.265625 L 9.40625 -10.265625 L 6.296875 -3.703125 L 6.296875 -1.4375 L 7.921875 -1.4375 Z M 7.921875 0 "/></g></g></g><g fill="#0c83b8" fill-opacity="1"><g transform="translate(145.620266, 238.01096)"><g><path d="M 7.734375 0 L 7.734375 -1.4375 L 8.921875 -1.4375 L 8.15625 -3.671875 L 3.65625 -3.671875 L 2.875 -1.4375 L 4.09375 -1.4375 L 4.09375 0 L 0.265625 0 L 0.265625 -1.4375 L 1.21875 -1.4375 L 4.265625 -10.265625 L 3.515625 -10.265625 L 3.515625 -11.703125 L 8.3125 -11.703125 L 8.3125 -10.265625 L 7.546875 -10.265625 L 10.578125 -1.4375 L 11.5625 -1.4375 L 11.5625 0 Z M 5.90625 -10.203125 L 4.140625 -5.109375 L 7.671875 -5.109375 Z M 5.90625 -10.203125 "/></g></g></g><g fill="#0c83b8" fill-opacity="1"><g transform="translate(157.446235, 238.01096)"><g/></g></g><g fill="#0c83b8" fill-opacity="1"><g transform="translate(163.746218, 238.01096)"><g><path d="M 1.265625 -1.4375 L 2.703125 -1.4375 L 2.703125 -12.0625 L 1.265625 -12.0625 L 1.265625 -13.5 L 5.796875 -13.5 L 5.796875 -12.0625 L 4.359375 -12.0625 L 4.359375 -1.4375 L 5.796875 -1.4375 L 5.796875 0 L 1.265625 0 Z M 1.265625 -1.4375 "/></g></g></g><g fill="#0c83b8" fill-opacity="1"><g transform="translate(170.802198, 238.01096)"><g><path d="M 7.84375 0 L 2.59375 0 L 2.59375 -1.4375 L 4.390625 -1.4375 L 4.390625 -12.0625 L 1.734375 -12.0625 L 1.734375 -9.96875 L 0.359375 -9.96875 L 0.359375 -13.5 L 10.078125 -13.5 L 10.078125 -9.96875 L 8.71875 -9.96875 L 8.71875 -12.0625 L 6.046875 -12.0625 L 6.046875 -1.4375 L 7.84375 -1.4375 Z M 7.84375 0 "/></g></g></g><g fill="#0c83b8" fill-opacity="1"><g transform="translate(181.242162, 238.01096)"><g/></g></g><g fill="#0c83b8" fill-opacity="1"><g transform="translate(187.542146, 238.01096)"><g><path d="M 9.359375 -9.25 L 7.859375 -9.25 L 7.859375 -10.828125 L 6.78125 -11.953125 L 4.03125 -11.953125 L 3.09375 -11 L 3.09375 -8.515625 L 3.984375 -7.609375 L 7.71875 -7.609375 L 9.546875 -5.703125 L 9.546875 -1.984375 L 7.671875 0 L 3.125 0 L 1.265625 -1.984375 L 1.265625 -4.25 L 2.75 -4.25 L 2.75 -2.65625 L 3.859375 -1.546875 L 6.96875 -1.546875 L 7.890625 -2.5 L 7.890625 -5.1875 L 7.015625 -6.0625 L 3.28125 -6.0625 L 1.4375 -7.984375 L 1.4375 -11.515625 L 3.3125 -13.5 L 7.484375 -13.5 L 9.359375 -11.515625 Z M 9.359375 -9.25 "/></g></g></g><g fill="#0c83b8" fill-opacity="1"><g transform="translate(198.342117, 238.01096)"><g><path d="M 3.3125 0 L 1.4375 -1.984375 L 1.4375 -9.71875 L 3.3125 -11.703125 L 8.390625 -11.703125 L 10.265625 -9.71875 L 10.265625 -1.984375 L 8.390625 0 Z M 4.015625 -1.546875 L 7.671875 -1.546875 L 8.609375 -2.5 L 8.609375 -9.203125 L 7.6875 -10.15625 L 4.03125 -10.15625 L 3.09375 -9.203125 L 3.09375 -2.5 Z M 4.015625 -1.546875 "/></g></g></g><g fill="#0c83b8" fill-opacity="1"><g transform="translate(210.042087, 238.01096)"><g><path d="M 1.4375 -11.703125 L 5.796875 -11.703125 L 5.796875 -10.265625 L 4.359375 -10.265625 L 4.359375 -1.4375 L 8.28125 -1.4375 L 8.28125 -3.53125 L 9.640625 -3.53125 L 9.640625 0 L 1.4375 0 L 1.4375 -1.4375 L 2.703125 -1.4375 L 2.703125 -10.265625 L 1.4375 -10.265625 Z M 1.4375 -11.703125 "/></g></g></g><g fill="#0c83b8" fill-opacity="1"><g transform="translate(220.050059, 238.01096)"><g><path d="M 8.0625 -11.703125 L 12.0625 -11.703125 L 12.0625 -10.265625 L 10.984375 -10.265625 L 10.984375 -1.984375 L 9.109375 0 L 4.21875 0 L 2.34375 -1.984375 L 2.34375 -10.265625 L 1.265625 -10.265625 L 1.265625 -11.703125 L 5.25 -11.703125 L 5.25 -10.265625 L 4 -10.265625 L 4 -2.5 L 4.90625 -1.546875 L 8.390625 -1.546875 L 9.328125 -2.5 L 9.328125 -10.265625 L 8.0625 -10.265625 Z M 8.0625 -11.703125 "/></g></g></g><g fill="#0c83b8" fill-opacity="1"><g transform="translate(233.37002, 238.01096)"><g><path d="M 7.84375 0 L 2.59375 0 L 2.59375 -1.4375 L 4.390625 -1.4375 L 4.390625 -10.265625 L 1.90625 -10.265625 L 1.90625 -8.171875 L 0.546875 -8.171875 L 0.546875 -11.703125 L 9.90625 -11.703125 L 9.90625 -8.171875 L 8.53125 -8.171875 L 8.53125 -10.265625 L 6.046875 -10.265625 L 6.046875 -1.4375 L 7.84375 -1.4375 Z M 7.84375 0 "/></g></g></g><g fill="#0c83b8" fill-opacity="1"><g transform="translate(243.809983, 238.01096)"><g><path d="M 1.265625 -1.4375 L 2.703125 -1.4375 L 2.703125 -10.265625 L 1.265625 -10.265625 L 1.265625 -11.703125 L 5.796875 -11.703125 L 5.796875 -10.265625 L 4.359375 -10.265625 L 4.359375 -1.4375 L 5.796875 -1.4375 L 5.796875 0 L 1.265625 0 Z M 1.265625 -1.4375 "/></g></g></g><g fill="#0c83b8" fill-opacity="1"><g transform="translate(250.865964, 238.01096)"><g><path d="M 3.3125 0 L 1.4375 -1.984375 L 1.4375 -9.71875 L 3.3125 -11.703125 L 8.390625 -11.703125 L 10.265625 -9.71875 L 10.265625 -1.984375 L 8.390625 0 Z M 4.015625 -1.546875 L 7.671875 -1.546875 L 8.609375 -2.5 L 8.609375 -9.203125 L 7.6875 -10.15625 L 4.03125 -10.15625 L 3.09375 -9.203125 L 3.09375 -2.5 Z M 4.015625 -1.546875 "/></g></g></g><g fill="#0c83b8" fill-opacity="1"><g transform="translate(262.565933, 238.01096)"><g><path d="M 4.359375 -1.4375 L 5.609375 -1.4375 L 5.609375 0 L 1.4375 0 L 1.4375 -1.4375 L 2.703125 -1.4375 L 2.703125 -10.265625 L 1.4375 -10.265625 L 1.4375 -11.703125 L 5.1875 -11.703125 L 10.4375 -1.765625 L 10.4375 -10.265625 L 9.1875 -10.265625 L 9.1875 -11.703125 L 13.359375 -11.703125 L 13.359375 -10.265625 L 12.09375 -10.265625 L 12.09375 0 L 9.609375 0 L 4.359375 -9.921875 Z M 4.359375 -1.4375 "/></g></g></g><g fill="#0c83b8" fill-opacity="1"><g transform="translate(277.181892, 238.01096)"><g><path d="M 9.359375 -7.453125 L 7.859375 -7.453125 L 7.859375 -9.03125 L 6.78125 -10.15625 L 4.03125 -10.15625 L 3.09375 -9.203125 L 3.09375 -7.4375 L 3.984375 -6.53125 L 7.71875 -6.53125 L 9.546875 -4.625 L 9.546875 -1.984375 L 7.671875 0 L 3.125 0 L 1.265625 -1.984375 L 1.265625 -4.25 L 2.75 -4.25 L 2.75 -2.65625 L 3.859375 -1.546875 L 6.96875 -1.546875 L 7.890625 -2.5 L 7.890625 -4.109375 L 7.015625 -4.984375 L 3.28125 -4.984375 L 1.4375 -6.90625 L 1.4375 -9.71875 L 3.3125 -11.703125 L 7.484375 -11.703125 L 9.359375 -9.71875 Z M 9.359375 -7.453125 "/></g></g></g><g fill="#0c83b8" fill-opacity="1"><g transform="translate(77.529549, 259.708812)"><g><path d="M 7.015625 -0.6875 L 8.859375 -5.828125 C 8.890625 -5.898438 8.921875 -5.96875 8.953125 -6.03125 C 8.992188 -6.09375 9.046875 -6.125 9.109375 -6.125 C 9.179688 -6.125 9.226562 -6.101562 9.25 -6.0625 C 9.28125 -6.019531 9.296875 -5.984375 9.296875 -5.953125 C 9.296875 -5.910156 9.289062 -5.863281 9.28125 -5.8125 C 9.269531 -5.769531 9.253906 -5.722656 9.234375 -5.671875 L 7.28125 -0.296875 C 7.25 -0.210938 7.210938 -0.140625 7.171875 -0.078125 C 7.140625 -0.0234375 7.085938 0 7.015625 0 C 6.941406 0 6.882812 -0.0234375 6.84375 -0.078125 C 6.8125 -0.140625 6.785156 -0.210938 6.765625 -0.296875 L 4.921875 -5.390625 L 3.09375 -0.296875 C 3.0625 -0.210938 3.023438 -0.140625 2.984375 -0.078125 C 2.953125 -0.0234375 2.898438 0 2.828125 0 C 2.753906 0 2.695312 -0.0234375 2.65625 -0.078125 C 2.625 -0.140625 2.59375 -0.210938 2.5625 -0.296875 L 0.625 -5.671875 C 0.613281 -5.722656 0.597656 -5.769531 0.578125 -5.8125 C 0.566406 -5.863281 0.5625 -5.910156 0.5625 -5.953125 C 0.5625 -5.984375 0.570312 -6.019531 0.59375 -6.0625 C 0.625 -6.101562 0.675781 -6.125 0.75 -6.125 C 0.820312 -6.125 0.875 -6.09375 0.90625 -6.03125 C 0.945312 -5.96875 0.976562 -5.898438 1 -5.828125 L 2.828125 -0.6875 L 4.671875 -5.828125 C 4.691406 -5.898438 4.71875 -5.96875 4.75 -6.03125 C 4.789062 -6.09375 4.84375 -6.125 4.90625 -6.125 C 4.988281 -6.125 5.046875 -6.097656 5.078125 -6.046875 C 5.117188 -5.992188 5.15625 -5.921875 5.1875 -5.828125 Z M 7.015625 -0.6875 "/></g></g></g><g fill="#0c83b8" fill-opacity="1"><g transform="translate(88.792434, 259.708812)"><g><path d="M 5.78125 -0.390625 C 5.78125 -0.347656 5.773438 -0.300781 5.765625 -0.25 C 5.765625 -0.207031 5.753906 -0.164062 5.734375 -0.125 C 5.722656 -0.09375 5.703125 -0.0625 5.671875 -0.03125 C 5.648438 -0.0078125 5.617188 0 5.578125 0 C 5.515625 0 5.46875 -0.0078125 5.4375 -0.03125 C 5.414062 -0.0625 5.394531 -0.09375 5.375 -0.125 C 5.363281 -0.164062 5.351562 -0.207031 5.34375 -0.25 C 5.34375 -0.300781 5.34375 -0.347656 5.34375 -0.390625 L 5.34375 -2.296875 C 5.34375 -2.585938 5.316406 -2.835938 5.265625 -3.046875 C 5.222656 -3.253906 5.140625 -3.429688 5.015625 -3.578125 C 4.898438 -3.722656 4.734375 -3.828125 4.515625 -3.890625 C 4.296875 -3.960938 4.007812 -4 3.65625 -4 C 3.4375 -4 3.203125 -3.976562 2.953125 -3.9375 C 2.710938 -3.90625 2.484375 -3.847656 2.265625 -3.765625 C 2.046875 -3.679688 1.847656 -3.566406 1.671875 -3.421875 C 1.492188 -3.273438 1.375 -3.09375 1.3125 -2.875 L 1.3125 -0.390625 C 1.3125 -0.347656 1.304688 -0.300781 1.296875 -0.25 C 1.296875 -0.207031 1.285156 -0.164062 1.265625 -0.125 C 1.253906 -0.09375 1.234375 -0.0625 1.203125 -0.03125 C 1.179688 -0.0078125 1.148438 0 1.109375 0 C 1.054688 0 1.015625 -0.0078125 0.984375 -0.03125 C 0.953125 -0.0625 0.925781 -0.09375 0.90625 -0.125 C 0.894531 -0.164062 0.882812 -0.207031 0.875 -0.25 C 0.875 -0.300781 0.875 -0.347656 0.875 -0.390625 L 0.875 -5.75 C 0.875 -5.789062 0.875 -5.832031 0.875 -5.875 C 0.882812 -5.925781 0.894531 -5.96875 0.90625 -6 C 0.925781 -6.039062 0.953125 -6.070312 0.984375 -6.09375 C 1.015625 -6.113281 1.054688 -6.125 1.109375 -6.125 C 1.148438 -6.125 1.179688 -6.113281 1.203125 -6.09375 C 1.234375 -6.070312 1.253906 -6.039062 1.265625 -6 C 1.285156 -5.96875 1.296875 -5.925781 1.296875 -5.875 C 1.304688 -5.832031 1.3125 -5.789062 1.3125 -5.75 L 1.3125 -3.265625 C 1.351562 -3.410156 1.421875 -3.535156 1.515625 -3.640625 C 1.617188 -3.753906 1.734375 -3.847656 1.859375 -3.921875 C 1.992188 -4.003906 2.140625 -4.070312 2.296875 -4.125 C 2.453125 -4.175781 2.609375 -4.21875 2.765625 -4.25 C 2.929688 -4.28125 3.085938 -4.300781 3.234375 -4.3125 C 3.390625 -4.320312 3.53125 -4.328125 3.65625 -4.328125 C 4.050781 -4.328125 4.382812 -4.289062 4.65625 -4.21875 C 4.925781 -4.15625 5.144531 -4.039062 5.3125 -3.875 C 5.476562 -3.71875 5.597656 -3.507812 5.671875 -3.25 C 5.742188 -3 5.78125 -2.679688 5.78125 -2.296875 Z M 5.78125 -0.390625 "/></g></g></g><g fill="#0c83b8" fill-opacity="1"><g transform="translate(96.788982, 259.708812)"><g><path d="M 3.296875 -4 C 2.953125 -4 2.648438 -3.96875 2.390625 -3.90625 C 2.128906 -3.851562 1.90625 -3.757812 1.71875 -3.625 C 1.53125 -3.5 1.382812 -3.332031 1.28125 -3.125 C 1.1875 -2.914062 1.128906 -2.664062 1.109375 -2.375 L 5.265625 -2.375 L 5.265625 -2.671875 C 5.265625 -2.847656 5.226562 -3.015625 5.15625 -3.171875 C 5.09375 -3.335938 4.984375 -3.484375 4.828125 -3.609375 C 4.671875 -3.734375 4.46875 -3.828125 4.21875 -3.890625 C 3.96875 -3.960938 3.660156 -4 3.296875 -4 Z M 3.015625 -0.265625 C 3.359375 -0.265625 3.660156 -0.285156 3.921875 -0.328125 C 4.179688 -0.378906 4.40625 -0.4375 4.59375 -0.5 C 4.78125 -0.5625 4.929688 -0.625 5.046875 -0.6875 C 5.171875 -0.75 5.265625 -0.804688 5.328125 -0.859375 C 5.359375 -0.859375 5.375 -0.859375 5.375 -0.859375 C 5.414062 -0.859375 5.453125 -0.835938 5.484375 -0.796875 C 5.523438 -0.765625 5.546875 -0.726562 5.546875 -0.6875 C 5.546875 -0.644531 5.523438 -0.609375 5.484375 -0.578125 C 5.453125 -0.546875 5.378906 -0.492188 5.265625 -0.421875 C 5.160156 -0.359375 5.007812 -0.289062 4.8125 -0.21875 C 4.613281 -0.144531 4.363281 -0.078125 4.0625 -0.015625 C 3.769531 0.0351562 3.421875 0.0625 3.015625 0.0625 C 2.585938 0.0625 2.222656 0.0078125 1.921875 -0.09375 C 1.628906 -0.207031 1.390625 -0.359375 1.203125 -0.546875 C 1.015625 -0.742188 0.878906 -0.972656 0.796875 -1.234375 C 0.710938 -1.503906 0.671875 -1.800781 0.671875 -2.125 C 0.671875 -2.539062 0.738281 -2.890625 0.875 -3.171875 C 1.007812 -3.460938 1.191406 -3.691406 1.421875 -3.859375 C 1.660156 -4.023438 1.941406 -4.144531 2.265625 -4.21875 C 2.585938 -4.289062 2.929688 -4.328125 3.296875 -4.328125 C 4.054688 -4.328125 4.625 -4.179688 5 -3.890625 C 5.382812 -3.597656 5.578125 -3.179688 5.578125 -2.640625 C 5.578125 -2.585938 5.570312 -2.53125 5.5625 -2.46875 C 5.5625 -2.40625 5.550781 -2.34375 5.53125 -2.28125 C 5.519531 -2.226562 5.503906 -2.179688 5.484375 -2.140625 C 5.472656 -2.097656 5.460938 -2.078125 5.453125 -2.078125 L 3.828125 -2.078125 L 1.109375 -2.140625 C 1.109375 -1.796875 1.148438 -1.503906 1.234375 -1.265625 C 1.316406 -1.035156 1.4375 -0.84375 1.59375 -0.6875 C 1.757812 -0.539062 1.957031 -0.429688 2.1875 -0.359375 C 2.425781 -0.296875 2.703125 -0.265625 3.015625 -0.265625 Z M 3.015625 -0.265625 "/></g></g></g><g fill="#0c83b8" fill-opacity="1"><g transform="translate(104.411605, 259.708812)"><g><path d="M 4.109375 -4.1875 C 4.148438 -4.175781 4.179688 -4.15625 4.203125 -4.125 C 4.222656 -4.09375 4.234375 -4.0625 4.234375 -4.03125 C 4.234375 -3.976562 4.21875 -3.929688 4.1875 -3.890625 C 4.15625 -3.847656 4.109375 -3.828125 4.046875 -3.828125 C 4.023438 -3.828125 4.007812 -3.828125 4 -3.828125 C 4 -3.835938 3.992188 -3.84375 3.984375 -3.84375 C 3.835938 -3.882812 3.695312 -3.914062 3.5625 -3.9375 C 3.4375 -3.957031 3.296875 -3.96875 3.140625 -3.96875 C 2.921875 -3.96875 2.710938 -3.945312 2.515625 -3.90625 C 2.328125 -3.863281 2.148438 -3.800781 1.984375 -3.71875 C 1.828125 -3.632812 1.6875 -3.523438 1.5625 -3.390625 C 1.445312 -3.253906 1.363281 -3.097656 1.3125 -2.921875 L 1.3125 -0.390625 C 1.3125 -0.285156 1.296875 -0.191406 1.265625 -0.109375 C 1.242188 -0.0351562 1.1875 0 1.09375 0 C 1.039062 0 1 -0.0078125 0.96875 -0.03125 C 0.9375 -0.0507812 0.910156 -0.078125 0.890625 -0.109375 C 0.878906 -0.148438 0.875 -0.191406 0.875 -0.234375 C 0.875 -0.285156 0.875 -0.335938 0.875 -0.390625 L 0.875 -3.90625 C 0.875 -3.988281 0.882812 -4.0625 0.90625 -4.125 C 0.9375 -4.1875 1.003906 -4.21875 1.109375 -4.21875 C 1.191406 -4.21875 1.242188 -4.1875 1.265625 -4.125 C 1.296875 -4.0625 1.3125 -3.988281 1.3125 -3.90625 L 1.3125 -3.265625 C 1.363281 -3.492188 1.460938 -3.675781 1.609375 -3.8125 C 1.753906 -3.945312 1.914062 -4.050781 2.09375 -4.125 C 2.269531 -4.207031 2.453125 -4.257812 2.640625 -4.28125 C 2.828125 -4.3125 2.992188 -4.328125 3.140625 -4.328125 C 3.273438 -4.328125 3.394531 -4.320312 3.5 -4.3125 C 3.601562 -4.300781 3.691406 -4.285156 3.765625 -4.265625 C 3.835938 -4.253906 3.898438 -4.242188 3.953125 -4.234375 C 4.003906 -4.222656 4.054688 -4.207031 4.109375 -4.1875 Z M 4.109375 -4.1875 "/></g></g></g><g fill="#0c83b8" fill-opacity="1"><g transform="translate(110.093081, 259.708812)"><g><path d="M 3.296875 -4 C 2.953125 -4 2.648438 -3.96875 2.390625 -3.90625 C 2.128906 -3.851562 1.90625 -3.757812 1.71875 -3.625 C 1.53125 -3.5 1.382812 -3.332031 1.28125 -3.125 C 1.1875 -2.914062 1.128906 -2.664062 1.109375 -2.375 L 5.265625 -2.375 L 5.265625 -2.671875 C 5.265625 -2.847656 5.226562 -3.015625 5.15625 -3.171875 C 5.09375 -3.335938 4.984375 -3.484375 4.828125 -3.609375 C 4.671875 -3.734375 4.46875 -3.828125 4.21875 -3.890625 C 3.96875 -3.960938 3.660156 -4 3.296875 -4 Z M 3.015625 -0.265625 C 3.359375 -0.265625 3.660156 -0.285156 3.921875 -0.328125 C 4.179688 -0.378906 4.40625 -0.4375 4.59375 -0.5 C 4.78125 -0.5625 4.929688 -0.625 5.046875 -0.6875 C 5.171875 -0.75 5.265625 -0.804688 5.328125 -0.859375 C 5.359375 -0.859375 5.375 -0.859375 5.375 -0.859375 C 5.414062 -0.859375 5.453125 -0.835938 5.484375 -0.796875 C 5.523438 -0.765625 5.546875 -0.726562 5.546875 -0.6875 C 5.546875 -0.644531 5.523438 -0.609375 5.484375 -0.578125 C 5.453125 -0.546875 5.378906 -0.492188 5.265625 -0.421875 C 5.160156 -0.359375 5.007812 -0.289062 4.8125 -0.21875 C 4.613281 -0.144531 4.363281 -0.078125 4.0625 -0.015625 C 3.769531 0.0351562 3.421875 0.0625 3.015625 0.0625 C 2.585938 0.0625 2.222656 0.0078125 1.921875 -0.09375 C 1.628906 -0.207031 1.390625 -0.359375 1.203125 -0.546875 C 1.015625 -0.742188 0.878906 -0.972656 0.796875 -1.234375 C 0.710938 -1.503906 0.671875 -1.800781 0.671875 -2.125 C 0.671875 -2.539062 0.738281 -2.890625 0.875 -3.171875 C 1.007812 -3.460938 1.191406 -3.691406 1.421875 -3.859375 C 1.660156 -4.023438 1.941406 -4.144531 2.265625 -4.21875 C 2.585938 -4.289062 2.929688 -4.328125 3.296875 -4.328125 C 4.054688 -4.328125 4.625 -4.179688 5 -3.890625 C 5.382812 -3.597656 5.578125 -3.179688 5.578125 -2.640625 C 5.578125 -2.585938 5.570312 -2.53125 5.5625 -2.46875 C 5.5625 -2.40625 5.550781 -2.34375 5.53125 -2.28125 C 5.519531 -2.226562 5.503906 -2.179688 5.484375 -2.140625 C 5.472656 -2.097656 5.460938 -2.078125 5.453125 -2.078125 L 3.828125 -2.078125 L 1.109375 -2.140625 C 1.109375 -1.796875 1.148438 -1.503906 1.234375 -1.265625 C 1.316406 -1.035156 1.4375 -0.84375 1.59375 -0.6875 C 1.757812 -0.539062 1.957031 -0.429688 2.1875 -0.359375 C 2.425781 -0.296875 2.703125 -0.265625 3.015625 -0.265625 Z M 3.015625 -0.265625 "/></g></g></g><g fill="#0c83b8" fill-opacity="1"><g transform="translate(117.715704, 259.708812)"><g/></g></g><g fill="#0c83b8" fill-opacity="1"><g transform="translate(121.654073, 259.708812)"><g><path d="M 1.359375 -0.390625 C 1.359375 -0.273438 1.34375 -0.179688 1.3125 -0.109375 C 1.28125 -0.0351562 1.21875 0 1.125 0 C 1.019531 0 0.953125 -0.0351562 0.921875 -0.109375 C 0.898438 -0.179688 0.890625 -0.269531 0.890625 -0.375 L 0.890625 -5.921875 C 0.890625 -5.972656 0.890625 -6.015625 0.890625 -6.046875 C 0.890625 -6.078125 0.894531 -6.097656 0.90625 -6.109375 C 0.914062 -6.117188 0.929688 -6.125 0.953125 -6.125 C 0.984375 -6.125 1.03125 -6.125 1.09375 -6.125 L 6.46875 -6.125 C 6.519531 -6.125 6.566406 -6.125 6.609375 -6.125 C 6.648438 -6.125 6.6875 -6.113281 6.71875 -6.09375 C 6.75 -6.082031 6.769531 -6.0625 6.78125 -6.03125 C 6.800781 -6.007812 6.8125 -5.976562 6.8125 -5.9375 C 6.8125 -5.851562 6.78125 -5.800781 6.71875 -5.78125 C 6.65625 -5.769531 6.570312 -5.765625 6.46875 -5.765625 L 1.359375 -5.765625 L 1.359375 -3.265625 L 5.6875 -3.265625 C 5.789062 -3.265625 5.875 -3.253906 5.9375 -3.234375 C 6.007812 -3.222656 6.046875 -3.175781 6.046875 -3.09375 C 6.046875 -3.050781 6.035156 -3.015625 6.015625 -2.984375 C 5.992188 -2.960938 5.96875 -2.941406 5.9375 -2.921875 C 5.90625 -2.910156 5.863281 -2.90625 5.8125 -2.90625 C 5.769531 -2.90625 5.726562 -2.90625 5.6875 -2.90625 L 1.359375 -2.90625 Z M 1.359375 -0.390625 "/></g></g></g><g fill="#0c83b8" fill-opacity="1"><g transform="translate(129.425046, 259.708812)"><g><path d="M 3.296875 -4 C 2.953125 -4 2.648438 -3.96875 2.390625 -3.90625 C 2.128906 -3.851562 1.90625 -3.757812 1.71875 -3.625 C 1.53125 -3.5 1.382812 -3.332031 1.28125 -3.125 C 1.1875 -2.914062 1.128906 -2.664062 1.109375 -2.375 L 5.265625 -2.375 L 5.265625 -2.671875 C 5.265625 -2.847656 5.226562 -3.015625 5.15625 -3.171875 C 5.09375 -3.335938 4.984375 -3.484375 4.828125 -3.609375 C 4.671875 -3.734375 4.46875 -3.828125 4.21875 -3.890625 C 3.96875 -3.960938 3.660156 -4 3.296875 -4 Z M 3.015625 -0.265625 C 3.359375 -0.265625 3.660156 -0.285156 3.921875 -0.328125 C 4.179688 -0.378906 4.40625 -0.4375 4.59375 -0.5 C 4.78125 -0.5625 4.929688 -0.625 5.046875 -0.6875 C 5.171875 -0.75 5.265625 -0.804688 5.328125 -0.859375 C 5.359375 -0.859375 5.375 -0.859375 5.375 -0.859375 C 5.414062 -0.859375 5.453125 -0.835938 5.484375 -0.796875 C 5.523438 -0.765625 5.546875 -0.726562 5.546875 -0.6875 C 5.546875 -0.644531 5.523438 -0.609375 5.484375 -0.578125 C 5.453125 -0.546875 5.378906 -0.492188 5.265625 -0.421875 C 5.160156 -0.359375 5.007812 -0.289062 4.8125 -0.21875 C 4.613281 -0.144531 4.363281 -0.078125 4.0625 -0.015625 C 3.769531 0.0351562 3.421875 0.0625 3.015625 0.0625 C 2.585938 0.0625 2.222656 0.0078125 1.921875 -0.09375 C 1.628906 -0.207031 1.390625 -0.359375 1.203125 -0.546875 C 1.015625 -0.742188 0.878906 -0.972656 0.796875 -1.234375 C 0.710938 -1.503906 0.671875 -1.800781 0.671875 -2.125 C 0.671875 -2.539062 0.738281 -2.890625 0.875 -3.171875 C 1.007812 -3.460938 1.191406 -3.691406 1.421875 -3.859375 C 1.660156 -4.023438 1.941406 -4.144531 2.265625 -4.21875 C 2.585938 -4.289062 2.929688 -4.328125 3.296875 -4.328125 C 4.054688 -4.328125 4.625 -4.179688 5 -3.890625 C 5.382812 -3.597656 5.578125 -3.179688 5.578125 -2.640625 C 5.578125 -2.585938 5.570312 -2.53125 5.5625 -2.46875 C 5.5625 -2.40625 5.550781 -2.34375 5.53125 -2.28125 C 5.519531 -2.226562 5.503906 -2.179688 5.484375 -2.140625 C 5.472656 -2.097656 5.460938 -2.078125 5.453125 -2.078125 L 3.828125 -2.078125 L 1.109375 -2.140625 C 1.109375 -1.796875 1.148438 -1.503906 1.234375 -1.265625 C 1.316406 -1.035156 1.4375 -0.84375 1.59375 -0.6875 C 1.757812 -0.539062 1.957031 -0.429688 2.1875 -0.359375 C 2.425781 -0.296875 2.703125 -0.265625 3.015625 -0.265625 Z M 3.015625 -0.265625 "/></g></g></g><g fill="#0c83b8" fill-opacity="1"><g transform="translate(137.047669, 259.708812)"><g><path d="M 1.171875 -1.234375 C 1.171875 -1.054688 1.21875 -0.90625 1.3125 -0.78125 C 1.40625 -0.664062 1.53125 -0.566406 1.6875 -0.484375 C 1.851562 -0.410156 2.046875 -0.351562 2.265625 -0.3125 C 2.484375 -0.28125 2.726562 -0.265625 3 -0.265625 C 3.3125 -0.265625 3.59375 -0.285156 3.84375 -0.328125 C 4.09375 -0.378906 4.3125 -0.4375 4.5 -0.5 C 4.6875 -0.570312 4.84375 -0.648438 4.96875 -0.734375 C 5.101562 -0.816406 5.210938 -0.898438 5.296875 -0.984375 L 5.296875 -2.078125 C 4.929688 -2.128906 4.550781 -2.175781 4.15625 -2.21875 C 3.757812 -2.269531 3.363281 -2.296875 2.96875 -2.296875 C 2.6875 -2.296875 2.429688 -2.28125 2.203125 -2.25 C 1.984375 -2.21875 1.796875 -2.160156 1.640625 -2.078125 C 1.492188 -1.992188 1.378906 -1.882812 1.296875 -1.75 C 1.210938 -1.613281 1.171875 -1.441406 1.171875 -1.234375 Z M 3.515625 -4 C 3.160156 -4 2.859375 -3.988281 2.609375 -3.96875 C 2.359375 -3.945312 2.144531 -3.921875 1.96875 -3.890625 C 1.789062 -3.867188 1.640625 -3.835938 1.515625 -3.796875 C 1.398438 -3.765625 1.296875 -3.734375 1.203125 -3.703125 C 1.160156 -3.703125 1.117188 -3.722656 1.078125 -3.765625 C 1.046875 -3.816406 1.03125 -3.867188 1.03125 -3.921875 C 1.03125 -3.960938 1.050781 -3.992188 1.09375 -4.015625 C 1.125 -4.035156 1.191406 -4.0625 1.296875 -4.09375 C 1.410156 -4.125 1.5625 -4.15625 1.75 -4.1875 C 1.945312 -4.226562 2.191406 -4.257812 2.484375 -4.28125 C 2.773438 -4.3125 3.117188 -4.328125 3.515625 -4.328125 C 3.703125 -4.328125 3.882812 -4.3125 4.0625 -4.28125 C 4.25 -4.257812 4.425781 -4.21875 4.59375 -4.15625 C 4.757812 -4.09375 4.910156 -4.003906 5.046875 -3.890625 C 5.191406 -3.785156 5.3125 -3.644531 5.40625 -3.46875 C 5.507812 -3.300781 5.59375 -3.09375 5.65625 -2.84375 C 5.71875 -2.59375 5.75 -2.300781 5.75 -1.96875 L 5.75 -0.390625 C 5.75 -0.335938 5.742188 -0.289062 5.734375 -0.25 C 5.734375 -0.207031 5.722656 -0.164062 5.703125 -0.125 C 5.691406 -0.09375 5.671875 -0.0625 5.640625 -0.03125 C 5.609375 -0.0078125 5.566406 0 5.515625 0 C 5.429688 0 5.375 -0.0351562 5.34375 -0.109375 C 5.3125 -0.191406 5.296875 -0.289062 5.296875 -0.40625 L 5.296875 -0.78125 C 5.222656 -0.695312 5.125 -0.601562 5 -0.5 C 4.882812 -0.40625 4.738281 -0.316406 4.5625 -0.234375 C 4.382812 -0.148438 4.171875 -0.078125 3.921875 -0.015625 C 3.671875 0.0351562 3.375 0.0625 3.03125 0.0625 C 2.71875 0.0625 2.421875 0.0351562 2.140625 -0.015625 C 1.859375 -0.0664062 1.613281 -0.140625 1.40625 -0.234375 C 1.195312 -0.335938 1.03125 -0.472656 0.90625 -0.640625 C 0.789062 -0.804688 0.734375 -1.003906 0.734375 -1.234375 C 0.734375 -1.503906 0.789062 -1.726562 0.90625 -1.90625 C 1.019531 -2.082031 1.175781 -2.222656 1.375 -2.328125 C 1.570312 -2.429688 1.800781 -2.503906 2.0625 -2.546875 C 2.332031 -2.597656 2.617188 -2.625 2.921875 -2.625 C 3.148438 -2.625 3.378906 -2.613281 3.609375 -2.59375 C 3.847656 -2.582031 4.070312 -2.5625 4.28125 -2.53125 C 4.488281 -2.5 4.679688 -2.457031 4.859375 -2.40625 C 5.035156 -2.363281 5.179688 -2.3125 5.296875 -2.25 C 5.296875 -2.625 5.242188 -2.925781 5.140625 -3.15625 C 5.046875 -3.382812 4.914062 -3.5625 4.75 -3.6875 C 4.582031 -3.8125 4.390625 -3.894531 4.171875 -3.9375 C 3.960938 -3.976562 3.742188 -4 3.515625 -4 Z M 3.515625 -4 "/></g></g></g><g fill="#0c83b8" fill-opacity="1"><g transform="translate(145.00573, 259.708812)"><g><path d="M 4.109375 -4.1875 C 4.148438 -4.175781 4.179688 -4.15625 4.203125 -4.125 C 4.222656 -4.09375 4.234375 -4.0625 4.234375 -4.03125 C 4.234375 -3.976562 4.21875 -3.929688 4.1875 -3.890625 C 4.15625 -3.847656 4.109375 -3.828125 4.046875 -3.828125 C 4.023438 -3.828125 4.007812 -3.828125 4 -3.828125 C 4 -3.835938 3.992188 -3.84375 3.984375 -3.84375 C 3.835938 -3.882812 3.695312 -3.914062 3.5625 -3.9375 C 3.4375 -3.957031 3.296875 -3.96875 3.140625 -3.96875 C 2.921875 -3.96875 2.710938 -3.945312 2.515625 -3.90625 C 2.328125 -3.863281 2.148438 -3.800781 1.984375 -3.71875 C 1.828125 -3.632812 1.6875 -3.523438 1.5625 -3.390625 C 1.445312 -3.253906 1.363281 -3.097656 1.3125 -2.921875 L 1.3125 -0.390625 C 1.3125 -0.285156 1.296875 -0.191406 1.265625 -0.109375 C 1.242188 -0.0351562 1.1875 0 1.09375 0 C 1.039062 0 1 -0.0078125 0.96875 -0.03125 C 0.9375 -0.0507812 0.910156 -0.078125 0.890625 -0.109375 C 0.878906 -0.148438 0.875 -0.191406 0.875 -0.234375 C 0.875 -0.285156 0.875 -0.335938 0.875 -0.390625 L 0.875 -3.90625 C 0.875 -3.988281 0.882812 -4.0625 0.90625 -4.125 C 0.9375 -4.1875 1.003906 -4.21875 1.109375 -4.21875 C 1.191406 -4.21875 1.242188 -4.1875 1.265625 -4.125 C 1.296875 -4.0625 1.3125 -3.988281 1.3125 -3.90625 L 1.3125 -3.265625 C 1.363281 -3.492188 1.460938 -3.675781 1.609375 -3.8125 C 1.753906 -3.945312 1.914062 -4.050781 2.09375 -4.125 C 2.269531 -4.207031 2.453125 -4.257812 2.640625 -4.28125 C 2.828125 -4.3125 2.992188 -4.328125 3.140625 -4.328125 C 3.273438 -4.328125 3.394531 -4.320312 3.5 -4.3125 C 3.601562 -4.300781 3.691406 -4.285156 3.765625 -4.265625 C 3.835938 -4.253906 3.898438 -4.242188 3.953125 -4.234375 C 4.003906 -4.222656 4.054688 -4.207031 4.109375 -4.1875 Z M 4.109375 -4.1875 "/></g></g></g><g fill="#0c83b8" fill-opacity="1"><g transform="translate(150.863216, 259.708812)"><g/></g></g><g fill="#0c83b8" fill-opacity="1"><g transform="translate(154.801585, 259.708812)"><g><path d="M 6.53125 -0.1875 C 6.53125 -0.132812 6.519531 -0.09375 6.5 -0.0625 C 6.476562 -0.0390625 6.453125 -0.0234375 6.421875 -0.015625 C 6.390625 -0.00390625 6.351562 0 6.3125 0 C 6.269531 0 6.222656 0 6.171875 0 L 1.03125 0 C 0.988281 0 0.957031 0 0.9375 0 C 0.925781 -0.0078125 0.914062 -0.0195312 0.90625 -0.03125 C 0.894531 -0.0507812 0.890625 -0.0703125 0.890625 -0.09375 C 0.890625 -0.113281 0.890625 -0.144531 0.890625 -0.1875 L 0.890625 -5.875 C 0.890625 -5.925781 0.890625 -5.96875 0.890625 -6 C 0.890625 -6.03125 0.894531 -6.054688 0.90625 -6.078125 C 0.914062 -6.097656 0.929688 -6.109375 0.953125 -6.109375 C 0.984375 -6.117188 1.03125 -6.125 1.09375 -6.125 L 6.109375 -6.125 C 6.160156 -6.125 6.210938 -6.125 6.265625 -6.125 C 6.316406 -6.125 6.359375 -6.117188 6.390625 -6.109375 C 6.429688 -6.097656 6.460938 -6.078125 6.484375 -6.046875 C 6.503906 -6.023438 6.515625 -5.988281 6.515625 -5.9375 C 6.515625 -5.894531 6.503906 -5.859375 6.484375 -5.828125 C 6.460938 -5.804688 6.429688 -5.789062 6.390625 -5.78125 C 6.359375 -5.769531 6.316406 -5.765625 6.265625 -5.765625 C 6.210938 -5.765625 6.160156 -5.765625 6.109375 -5.765625 L 1.359375 -5.765625 L 1.359375 -3.359375 L 6.078125 -3.359375 C 6.160156 -3.359375 6.226562 -3.347656 6.28125 -3.328125 C 6.34375 -3.304688 6.375 -3.253906 6.375 -3.171875 C 6.375 -3.097656 6.347656 -3.046875 6.296875 -3.015625 C 6.253906 -2.992188 6.195312 -2.984375 6.125 -2.984375 L 1.359375 -2.984375 L 1.359375 -0.359375 L 6.125 -0.359375 C 6.175781 -0.359375 6.222656 -0.359375 6.265625 -0.359375 C 6.316406 -0.359375 6.363281 -0.351562 6.40625 -0.34375 C 6.445312 -0.332031 6.476562 -0.316406 6.5 -0.296875 C 6.519531 -0.273438 6.53125 -0.238281 6.53125 -0.1875 Z M 6.53125 -0.1875 "/></g></g></g><g fill="#0c83b8" fill-opacity="1"><g transform="translate(163.194007, 259.708812)"><g><path d="M 5.75 -0.390625 C 5.75 -0.347656 5.742188 -0.300781 5.734375 -0.25 C 5.722656 -0.207031 5.707031 -0.164062 5.6875 -0.125 C 5.675781 -0.09375 5.65625 -0.0625 5.625 -0.03125 C 5.601562 -0.0078125 5.566406 0 5.515625 0 C 5.460938 0 5.421875 -0.0078125 5.390625 -0.03125 C 5.367188 -0.0625 5.347656 -0.09375 5.328125 -0.125 C 5.316406 -0.164062 5.3125 -0.207031 5.3125 -0.25 C 5.3125 -0.300781 5.3125 -0.347656 5.3125 -0.390625 L 5.3125 -2.296875 C 5.3125 -2.585938 5.289062 -2.835938 5.25 -3.046875 C 5.207031 -3.253906 5.125 -3.429688 5 -3.578125 C 4.875 -3.722656 4.703125 -3.828125 4.484375 -3.890625 C 4.265625 -3.960938 3.976562 -4 3.625 -4 C 3.414062 -4 3.1875 -3.976562 2.9375 -3.9375 C 2.695312 -3.90625 2.46875 -3.847656 2.25 -3.765625 C 2.03125 -3.679688 1.832031 -3.566406 1.65625 -3.421875 C 1.488281 -3.273438 1.375 -3.09375 1.3125 -2.875 L 1.3125 -0.390625 C 1.3125 -0.347656 1.304688 -0.300781 1.296875 -0.25 C 1.296875 -0.207031 1.289062 -0.164062 1.28125 -0.125 C 1.269531 -0.09375 1.25 -0.0625 1.21875 -0.03125 C 1.1875 -0.0078125 1.148438 0 1.109375 0 C 1.054688 0 1.015625 -0.0078125 0.984375 -0.03125 C 0.953125 -0.0625 0.925781 -0.09375 0.90625 -0.125 C 0.894531 -0.164062 0.882812 -0.207031 0.875 -0.25 C 0.875 -0.300781 0.875 -0.347656 0.875 -0.390625 L 0.875 -3.953125 C 0.875 -4.015625 0.882812 -4.070312 0.90625 -4.125 C 0.9375 -4.1875 1.003906 -4.21875 1.109375 -4.21875 C 1.203125 -4.21875 1.257812 -4.191406 1.28125 -4.140625 C 1.300781 -4.085938 1.3125 -4.023438 1.3125 -3.953125 L 1.3125 -3.265625 C 1.414062 -3.503906 1.554688 -3.691406 1.734375 -3.828125 C 1.921875 -3.972656 2.125 -4.078125 2.34375 -4.140625 C 2.5625 -4.210938 2.78125 -4.257812 3 -4.28125 C 3.226562 -4.3125 3.4375 -4.328125 3.625 -4.328125 C 4.019531 -4.328125 4.351562 -4.289062 4.625 -4.21875 C 4.894531 -4.15625 5.113281 -4.039062 5.28125 -3.875 C 5.445312 -3.71875 5.566406 -3.507812 5.640625 -3.25 C 5.710938 -3 5.75 -2.679688 5.75 -2.296875 Z M 5.75 -0.390625 "/></g></g></g><g fill="#0c83b8" fill-opacity="1"><g transform="translate(171.15756, 259.708812)"><g><path d="M 3.109375 0.0625 C 2.785156 0.0625 2.472656 0.0234375 2.171875 -0.046875 C 1.878906 -0.117188 1.617188 -0.234375 1.390625 -0.390625 C 1.171875 -0.554688 0.992188 -0.773438 0.859375 -1.046875 C 0.734375 -1.328125 0.671875 -1.675781 0.671875 -2.09375 C 0.671875 -2.5 0.722656 -2.84375 0.828125 -3.125 C 0.941406 -3.414062 1.101562 -3.648438 1.3125 -3.828125 C 1.519531 -4.003906 1.773438 -4.128906 2.078125 -4.203125 C 2.378906 -4.285156 2.722656 -4.328125 3.109375 -4.328125 C 3.503906 -4.328125 3.835938 -4.300781 4.109375 -4.25 C 4.390625 -4.207031 4.625 -4.148438 4.8125 -4.078125 C 5.007812 -4.015625 5.171875 -3.941406 5.296875 -3.859375 C 5.421875 -3.773438 5.519531 -3.695312 5.59375 -3.625 L 5.59375 -5.734375 C 5.59375 -5.785156 5.59375 -5.832031 5.59375 -5.875 C 5.59375 -5.925781 5.597656 -5.96875 5.609375 -6 C 5.628906 -6.039062 5.648438 -6.070312 5.671875 -6.09375 C 5.703125 -6.113281 5.742188 -6.125 5.796875 -6.125 C 5.859375 -6.125 5.898438 -6.113281 5.921875 -6.09375 C 5.953125 -6.070312 5.972656 -6.046875 5.984375 -6.015625 C 6.003906 -5.984375 6.015625 -5.941406 6.015625 -5.890625 C 6.023438 -5.847656 6.03125 -5.800781 6.03125 -5.75 L 6.03125 -0.296875 C 6.03125 -0.179688 6.003906 -0.101562 5.953125 -0.0625 C 5.910156 -0.0195312 5.863281 0 5.8125 0 C 5.75 0 5.695312 -0.015625 5.65625 -0.046875 C 5.613281 -0.0859375 5.59375 -0.164062 5.59375 -0.28125 L 5.59375 -1.046875 C 5.550781 -0.890625 5.476562 -0.753906 5.375 -0.640625 C 5.269531 -0.523438 5.144531 -0.425781 5 -0.34375 C 4.863281 -0.257812 4.710938 -0.191406 4.546875 -0.140625 C 4.378906 -0.0859375 4.207031 -0.046875 4.03125 -0.015625 C 3.863281 0.00390625 3.695312 0.0195312 3.53125 0.03125 C 3.375 0.0507812 3.234375 0.0625 3.109375 0.0625 Z M 3.109375 -0.265625 C 3.328125 -0.273438 3.566406 -0.296875 3.828125 -0.328125 C 4.085938 -0.359375 4.335938 -0.410156 4.578125 -0.484375 C 4.816406 -0.566406 5.023438 -0.679688 5.203125 -0.828125 C 5.390625 -0.972656 5.519531 -1.160156 5.59375 -1.390625 L 5.59375 -3.359375 C 5.507812 -3.429688 5.398438 -3.503906 5.265625 -3.578125 C 5.140625 -3.648438 4.976562 -3.71875 4.78125 -3.78125 C 4.582031 -3.84375 4.34375 -3.894531 4.0625 -3.9375 C 3.789062 -3.976562 3.472656 -4 3.109375 -4 C 2.753906 -4 2.453125 -3.960938 2.203125 -3.890625 C 1.953125 -3.816406 1.742188 -3.703125 1.578125 -3.546875 C 1.421875 -3.390625 1.300781 -3.191406 1.21875 -2.953125 C 1.144531 -2.710938 1.109375 -2.425781 1.109375 -2.09375 C 1.109375 -1.738281 1.160156 -1.445312 1.265625 -1.21875 C 1.378906 -0.988281 1.523438 -0.800781 1.703125 -0.65625 C 1.878906 -0.519531 2.085938 -0.421875 2.328125 -0.359375 C 2.578125 -0.296875 2.835938 -0.265625 3.109375 -0.265625 Z M 3.109375 -0.265625 "/></g></g></g><g fill="#0c83b8" fill-opacity="1"><g transform="translate(179.46755, 259.708812)"><g><path d="M 5.453125 -1.15625 C 5.453125 -1.34375 5.382812 -1.488281 5.25 -1.59375 C 5.113281 -1.707031 4.929688 -1.785156 4.703125 -1.828125 C 4.484375 -1.878906 4.226562 -1.910156 3.9375 -1.921875 C 3.644531 -1.941406 3.347656 -1.953125 3.046875 -1.953125 C 2.753906 -1.960938 2.460938 -1.976562 2.171875 -2 C 1.890625 -2.03125 1.632812 -2.082031 1.40625 -2.15625 C 1.175781 -2.226562 0.992188 -2.335938 0.859375 -2.484375 C 0.722656 -2.628906 0.65625 -2.820312 0.65625 -3.0625 C 0.65625 -3.3125 0.722656 -3.515625 0.859375 -3.671875 C 0.992188 -3.835938 1.171875 -3.96875 1.390625 -4.0625 C 1.617188 -4.164062 1.875 -4.234375 2.15625 -4.265625 C 2.4375 -4.304688 2.726562 -4.328125 3.03125 -4.328125 C 3.507812 -4.328125 3.953125 -4.285156 4.359375 -4.203125 C 4.773438 -4.128906 5.160156 -4 5.515625 -3.8125 C 5.554688 -3.789062 5.582031 -3.765625 5.59375 -3.734375 C 5.601562 -3.710938 5.613281 -3.6875 5.625 -3.65625 C 5.625 -3.601562 5.609375 -3.554688 5.578125 -3.515625 C 5.546875 -3.484375 5.515625 -3.46875 5.484375 -3.46875 C 5.460938 -3.46875 5.445312 -3.472656 5.4375 -3.484375 C 5.125 -3.640625 4.769531 -3.765625 4.375 -3.859375 C 3.976562 -3.953125 3.535156 -4 3.046875 -4 C 2.796875 -4 2.550781 -3.984375 2.3125 -3.953125 C 2.082031 -3.921875 1.875 -3.867188 1.6875 -3.796875 C 1.507812 -3.722656 1.363281 -3.625 1.25 -3.5 C 1.144531 -3.382812 1.09375 -3.238281 1.09375 -3.0625 C 1.09375 -2.875 1.160156 -2.726562 1.296875 -2.625 C 1.429688 -2.53125 1.613281 -2.460938 1.84375 -2.421875 C 2.070312 -2.378906 2.328125 -2.351562 2.609375 -2.34375 C 2.898438 -2.332031 3.191406 -2.316406 3.484375 -2.296875 C 3.785156 -2.285156 4.082031 -2.265625 4.375 -2.234375 C 4.664062 -2.210938 4.921875 -2.160156 5.140625 -2.078125 C 5.367188 -2.003906 5.550781 -1.894531 5.6875 -1.75 C 5.820312 -1.601562 5.890625 -1.40625 5.890625 -1.15625 C 5.890625 -0.925781 5.820312 -0.734375 5.6875 -0.578125 C 5.550781 -0.429688 5.363281 -0.3125 5.125 -0.21875 C 4.894531 -0.125 4.628906 -0.0507812 4.328125 0 C 4.023438 0.0390625 3.710938 0.0625 3.390625 0.0625 C 3.191406 0.0625 2.976562 0.0546875 2.75 0.046875 C 2.519531 0.0351562 2.289062 0.015625 2.0625 -0.015625 C 1.832031 -0.0546875 1.613281 -0.113281 1.40625 -0.1875 C 1.195312 -0.257812 1.015625 -0.359375 0.859375 -0.484375 C 0.804688 -0.523438 0.78125 -0.570312 0.78125 -0.625 C 0.78125 -0.664062 0.789062 -0.703125 0.8125 -0.734375 C 0.84375 -0.773438 0.878906 -0.796875 0.921875 -0.796875 C 0.953125 -0.796875 0.972656 -0.789062 0.984375 -0.78125 C 1.140625 -0.664062 1.304688 -0.578125 1.484375 -0.515625 C 1.660156 -0.453125 1.847656 -0.398438 2.046875 -0.359375 C 2.242188 -0.328125 2.453125 -0.300781 2.671875 -0.28125 C 2.890625 -0.269531 3.113281 -0.265625 3.34375 -0.265625 C 3.613281 -0.265625 3.875 -0.28125 4.125 -0.3125 C 4.382812 -0.34375 4.613281 -0.390625 4.8125 -0.453125 C 5.007812 -0.523438 5.164062 -0.613281 5.28125 -0.71875 C 5.394531 -0.832031 5.453125 -0.976562 5.453125 -1.15625 Z M 5.453125 -1.15625 "/></g></g></g><g fill="#0c83b8" fill-opacity="1"><g transform="translate(187.376115, 259.708812)"><g><path d="M 0.46875 0.484375 C 0.601562 0.484375 0.691406 0.445312 0.734375 0.375 C 0.785156 0.3125 0.8125 0.222656 0.8125 0.109375 C 0.75 0.0976562 0.6875 0.0625 0.625 0 C 0.570312 -0.0625 0.546875 -0.144531 0.546875 -0.25 C 0.546875 -0.351562 0.582031 -0.429688 0.65625 -0.484375 C 0.726562 -0.546875 0.816406 -0.578125 0.921875 -0.578125 C 0.972656 -0.578125 1.019531 -0.566406 1.0625 -0.546875 C 1.101562 -0.535156 1.140625 -0.507812 1.171875 -0.46875 C 1.210938 -0.4375 1.242188 -0.394531 1.265625 -0.34375 C 1.285156 -0.300781 1.296875 -0.242188 1.296875 -0.171875 C 1.296875 -0.078125 1.28125 0.015625 1.25 0.109375 C 1.21875 0.210938 1.164062 0.304688 1.09375 0.390625 C 1.019531 0.472656 0.929688 0.539062 0.828125 0.59375 C 0.722656 0.65625 0.601562 0.6875 0.46875 0.6875 Z M 0.46875 0.484375 "/></g></g></g><g fill="#0c83b8" fill-opacity="1"><g transform="translate(190.561143, 259.708812)"><g/></g></g><g fill="#0c83b8" fill-opacity="1"><g transform="translate(194.499512, 259.708812)"><g><path d="M 7.84375 -1.703125 C 7.84375 -1.472656 7.800781 -1.265625 7.71875 -1.078125 C 7.632812 -0.898438 7.515625 -0.742188 7.359375 -0.609375 C 7.210938 -0.472656 7.035156 -0.359375 6.828125 -0.265625 C 6.628906 -0.171875 6.40625 -0.0976562 6.15625 -0.046875 C 5.914062 0.00390625 5.660156 0.0390625 5.390625 0.0625 C 5.117188 0.09375 4.84375 0.109375 4.5625 0.109375 C 4.164062 0.109375 3.773438 0.0859375 3.390625 0.046875 C 3.003906 0.00390625 2.640625 -0.0390625 2.296875 -0.09375 C 1.960938 -0.15625 1.664062 -0.222656 1.40625 -0.296875 C 1.144531 -0.367188 0.945312 -0.4375 0.8125 -0.5 C 0.769531 -0.519531 0.734375 -0.550781 0.703125 -0.59375 C 0.679688 -0.632812 0.671875 -0.671875 0.671875 -0.703125 C 0.671875 -0.753906 0.679688 -0.796875 0.703125 -0.828125 C 0.734375 -0.859375 0.769531 -0.875 0.8125 -0.875 C 0.832031 -0.875 0.859375 -0.867188 0.890625 -0.859375 C 1.035156 -0.796875 1.238281 -0.726562 1.5 -0.65625 C 1.769531 -0.59375 2.070312 -0.53125 2.40625 -0.46875 C 2.75 -0.40625 3.113281 -0.351562 3.5 -0.3125 C 3.882812 -0.269531 4.265625 -0.25 4.640625 -0.25 C 5.003906 -0.25 5.351562 -0.269531 5.6875 -0.3125 C 6.019531 -0.363281 6.3125 -0.445312 6.5625 -0.5625 C 6.8125 -0.675781 7.007812 -0.828125 7.15625 -1.015625 C 7.300781 -1.203125 7.375 -1.429688 7.375 -1.703125 C 7.375 -1.941406 7.3125 -2.132812 7.1875 -2.28125 C 7.0625 -2.425781 6.890625 -2.539062 6.671875 -2.625 C 6.460938 -2.71875 6.210938 -2.785156 5.921875 -2.828125 C 5.628906 -2.878906 5.320312 -2.914062 5 -2.9375 C 4.675781 -2.96875 4.335938 -2.988281 3.984375 -3 C 3.640625 -3.007812 3.304688 -3.03125 2.984375 -3.0625 C 2.660156 -3.09375 2.351562 -3.132812 2.0625 -3.1875 C 1.78125 -3.238281 1.53125 -3.316406 1.3125 -3.421875 C 1.09375 -3.535156 0.921875 -3.675781 0.796875 -3.84375 C 0.671875 -4.007812 0.609375 -4.222656 0.609375 -4.484375 C 0.609375 -4.710938 0.648438 -4.914062 0.734375 -5.09375 C 0.828125 -5.28125 0.945312 -5.4375 1.09375 -5.5625 C 1.25 -5.695312 1.429688 -5.804688 1.640625 -5.890625 C 1.859375 -5.972656 2.085938 -6.039062 2.328125 -6.09375 C 2.578125 -6.144531 2.835938 -6.179688 3.109375 -6.203125 C 3.390625 -6.234375 3.664062 -6.25 3.9375 -6.25 C 4.28125 -6.25 4.613281 -6.234375 4.9375 -6.203125 C 5.269531 -6.171875 5.582031 -6.125 5.875 -6.0625 C 6.164062 -6.007812 6.425781 -5.953125 6.65625 -5.890625 C 6.882812 -5.828125 7.070312 -5.765625 7.21875 -5.703125 C 7.238281 -5.679688 7.253906 -5.65625 7.265625 -5.625 C 7.285156 -5.601562 7.296875 -5.578125 7.296875 -5.546875 C 7.296875 -5.492188 7.273438 -5.445312 7.234375 -5.40625 C 7.203125 -5.363281 7.15625 -5.34375 7.09375 -5.34375 C 7.0625 -5.34375 7.035156 -5.347656 7.015625 -5.359375 C 6.816406 -5.441406 6.597656 -5.515625 6.359375 -5.578125 C 6.117188 -5.640625 5.867188 -5.691406 5.609375 -5.734375 C 5.347656 -5.785156 5.078125 -5.820312 4.796875 -5.84375 C 4.515625 -5.863281 4.234375 -5.875 3.953125 -5.875 C 3.578125 -5.875 3.210938 -5.851562 2.859375 -5.8125 C 2.515625 -5.769531 2.207031 -5.695312 1.9375 -5.59375 C 1.675781 -5.488281 1.46875 -5.347656 1.3125 -5.171875 C 1.15625 -4.992188 1.078125 -4.773438 1.078125 -4.515625 C 1.078125 -4.316406 1.140625 -4.148438 1.265625 -4.015625 C 1.390625 -3.890625 1.554688 -3.789062 1.765625 -3.71875 C 1.984375 -3.644531 2.238281 -3.585938 2.53125 -3.546875 C 2.820312 -3.503906 3.128906 -3.472656 3.453125 -3.453125 C 3.773438 -3.429688 4.109375 -3.410156 4.453125 -3.390625 C 4.804688 -3.378906 5.144531 -3.351562 5.46875 -3.3125 C 5.789062 -3.269531 6.097656 -3.210938 6.390625 -3.140625 C 6.679688 -3.078125 6.929688 -2.984375 7.140625 -2.859375 C 7.359375 -2.742188 7.53125 -2.59375 7.65625 -2.40625 C 7.78125 -2.21875 7.84375 -1.984375 7.84375 -1.703125 Z M 7.84375 -1.703125 "/></g></g></g><g fill="#0c83b8" fill-opacity="1"><g transform="translate(204.376678, 259.708812)"><g><path d="M 3.296875 -4 C 2.953125 -4 2.648438 -3.96875 2.390625 -3.90625 C 2.128906 -3.851562 1.90625 -3.757812 1.71875 -3.625 C 1.53125 -3.5 1.382812 -3.332031 1.28125 -3.125 C 1.1875 -2.914062 1.128906 -2.664062 1.109375 -2.375 L 5.265625 -2.375 L 5.265625 -2.671875 C 5.265625 -2.847656 5.226562 -3.015625 5.15625 -3.171875 C 5.09375 -3.335938 4.984375 -3.484375 4.828125 -3.609375 C 4.671875 -3.734375 4.46875 -3.828125 4.21875 -3.890625 C 3.96875 -3.960938 3.660156 -4 3.296875 -4 Z M 3.015625 -0.265625 C 3.359375 -0.265625 3.660156 -0.285156 3.921875 -0.328125 C 4.179688 -0.378906 4.40625 -0.4375 4.59375 -0.5 C 4.78125 -0.5625 4.929688 -0.625 5.046875 -0.6875 C 5.171875 -0.75 5.265625 -0.804688 5.328125 -0.859375 C 5.359375 -0.859375 5.375 -0.859375 5.375 -0.859375 C 5.414062 -0.859375 5.453125 -0.835938 5.484375 -0.796875 C 5.523438 -0.765625 5.546875 -0.726562 5.546875 -0.6875 C 5.546875 -0.644531 5.523438 -0.609375 5.484375 -0.578125 C 5.453125 -0.546875 5.378906 -0.492188 5.265625 -0.421875 C 5.160156 -0.359375 5.007812 -0.289062 4.8125 -0.21875 C 4.613281 -0.144531 4.363281 -0.078125 4.0625 -0.015625 C 3.769531 0.0351562 3.421875 0.0625 3.015625 0.0625 C 2.585938 0.0625 2.222656 0.0078125 1.921875 -0.09375 C 1.628906 -0.207031 1.390625 -0.359375 1.203125 -0.546875 C 1.015625 -0.742188 0.878906 -0.972656 0.796875 -1.234375 C 0.710938 -1.503906 0.671875 -1.800781 0.671875 -2.125 C 0.671875 -2.539062 0.738281 -2.890625 0.875 -3.171875 C 1.007812 -3.460938 1.191406 -3.691406 1.421875 -3.859375 C 1.660156 -4.023438 1.941406 -4.144531 2.265625 -4.21875 C 2.585938 -4.289062 2.929688 -4.328125 3.296875 -4.328125 C 4.054688 -4.328125 4.625 -4.179688 5 -3.890625 C 5.382812 -3.597656 5.578125 -3.179688 5.578125 -2.640625 C 5.578125 -2.585938 5.570312 -2.53125 5.5625 -2.46875 C 5.5625 -2.40625 5.550781 -2.34375 5.53125 -2.28125 C 5.519531 -2.226562 5.503906 -2.179688 5.484375 -2.140625 C 5.472656 -2.097656 5.460938 -2.078125 5.453125 -2.078125 L 3.828125 -2.078125 L 1.109375 -2.140625 C 1.109375 -1.796875 1.148438 -1.503906 1.234375 -1.265625 C 1.316406 -1.035156 1.4375 -0.84375 1.59375 -0.6875 C 1.757812 -0.539062 1.957031 -0.429688 2.1875 -0.359375 C 2.425781 -0.296875 2.703125 -0.265625 3.015625 -0.265625 Z M 3.015625 -0.265625 "/></g></g></g><g fill="#0c83b8" fill-opacity="1"><g transform="translate(211.999301, 259.708812)"><g><path d="M 3.453125 -4 C 3.035156 -4 2.675781 -3.960938 2.375 -3.890625 C 2.082031 -3.828125 1.835938 -3.71875 1.640625 -3.5625 C 1.453125 -3.40625 1.3125 -3.207031 1.21875 -2.96875 C 1.132812 -2.738281 1.09375 -2.457031 1.09375 -2.125 C 1.09375 -1.78125 1.140625 -1.488281 1.234375 -1.25 C 1.335938 -1.019531 1.488281 -0.832031 1.6875 -0.6875 C 1.882812 -0.539062 2.128906 -0.429688 2.421875 -0.359375 C 2.710938 -0.296875 3.054688 -0.265625 3.453125 -0.265625 C 3.628906 -0.265625 3.804688 -0.273438 3.984375 -0.296875 C 4.160156 -0.328125 4.332031 -0.363281 4.5 -0.40625 C 4.664062 -0.445312 4.816406 -0.488281 4.953125 -0.53125 C 5.097656 -0.582031 5.210938 -0.628906 5.296875 -0.671875 C 5.359375 -0.691406 5.398438 -0.703125 5.421875 -0.703125 C 5.460938 -0.703125 5.5 -0.6875 5.53125 -0.65625 C 5.5625 -0.625 5.578125 -0.59375 5.578125 -0.5625 C 5.578125 -0.53125 5.566406 -0.5 5.546875 -0.46875 C 5.523438 -0.4375 5.492188 -0.410156 5.453125 -0.390625 C 5.128906 -0.222656 4.796875 -0.101562 4.453125 -0.03125 C 4.109375 0.03125 3.773438 0.0625 3.453125 0.0625 C 3.035156 0.0625 2.65625 0.03125 2.3125 -0.03125 C 1.96875 -0.101562 1.671875 -0.222656 1.421875 -0.390625 C 1.179688 -0.554688 0.992188 -0.773438 0.859375 -1.046875 C 0.722656 -1.328125 0.65625 -1.6875 0.65625 -2.125 C 0.65625 -2.539062 0.71875 -2.890625 0.84375 -3.171875 C 0.96875 -3.460938 1.148438 -3.691406 1.390625 -3.859375 C 1.628906 -4.023438 1.921875 -4.144531 2.265625 -4.21875 C 2.609375 -4.289062 3.003906 -4.328125 3.453125 -4.328125 C 3.773438 -4.328125 4.109375 -4.289062 4.453125 -4.21875 C 4.796875 -4.15625 5.128906 -4.046875 5.453125 -3.890625 C 5.492188 -3.859375 5.523438 -3.828125 5.546875 -3.796875 C 5.566406 -3.765625 5.578125 -3.738281 5.578125 -3.71875 C 5.578125 -3.675781 5.5625 -3.640625 5.53125 -3.609375 C 5.5 -3.578125 5.460938 -3.5625 5.421875 -3.5625 C 5.398438 -3.5625 5.359375 -3.570312 5.296875 -3.59375 C 5.210938 -3.632812 5.097656 -3.679688 4.953125 -3.734375 C 4.816406 -3.785156 4.664062 -3.828125 4.5 -3.859375 C 4.332031 -3.898438 4.160156 -3.929688 3.984375 -3.953125 C 3.804688 -3.984375 3.628906 -4 3.453125 -4 Z M 3.453125 -4 "/></g></g></g><g fill="#0c83b8" fill-opacity="1"><g transform="translate(219.632922, 259.708812)"><g><path d="M 5.15625 -0.78125 C 5.082031 -0.6875 4.984375 -0.585938 4.859375 -0.484375 C 4.742188 -0.390625 4.597656 -0.300781 4.421875 -0.21875 C 4.253906 -0.144531 4.050781 -0.078125 3.8125 -0.015625 C 3.570312 0.0351562 3.300781 0.0625 3 0.0625 C 2.601562 0.0625 2.265625 0.0234375 1.984375 -0.046875 C 1.710938 -0.128906 1.488281 -0.25 1.3125 -0.40625 C 1.132812 -0.570312 1.003906 -0.773438 0.921875 -1.015625 C 0.847656 -1.265625 0.8125 -1.566406 0.8125 -1.921875 L 0.8125 -3.8125 C 0.8125 -3.863281 0.8125 -3.910156 0.8125 -3.953125 C 0.820312 -4.003906 0.832031 -4.046875 0.84375 -4.078125 C 0.863281 -4.117188 0.882812 -4.148438 0.90625 -4.171875 C 0.9375 -4.203125 0.976562 -4.21875 1.03125 -4.21875 C 1.082031 -4.21875 1.125 -4.203125 1.15625 -4.171875 C 1.1875 -4.148438 1.207031 -4.117188 1.21875 -4.078125 C 1.226562 -4.046875 1.234375 -4.003906 1.234375 -3.953125 C 1.242188 -3.910156 1.25 -3.863281 1.25 -3.8125 L 1.25 -1.921875 C 1.25 -1.609375 1.273438 -1.347656 1.328125 -1.140625 C 1.378906 -0.929688 1.46875 -0.757812 1.59375 -0.625 C 1.726562 -0.5 1.90625 -0.40625 2.125 -0.34375 C 2.351562 -0.289062 2.644531 -0.265625 3 -0.265625 C 3.257812 -0.265625 3.492188 -0.285156 3.703125 -0.328125 C 3.921875 -0.378906 4.117188 -0.4375 4.296875 -0.5 C 4.484375 -0.570312 4.644531 -0.648438 4.78125 -0.734375 C 4.925781 -0.816406 5.054688 -0.898438 5.171875 -0.984375 L 5.171875 -3.8125 C 5.171875 -3.863281 5.171875 -3.910156 5.171875 -3.953125 C 5.171875 -4.003906 5.175781 -4.046875 5.1875 -4.078125 C 5.207031 -4.117188 5.226562 -4.148438 5.25 -4.171875 C 5.28125 -4.203125 5.320312 -4.21875 5.375 -4.21875 C 5.425781 -4.21875 5.46875 -4.203125 5.5 -4.171875 C 5.53125 -4.148438 5.550781 -4.117188 5.5625 -4.078125 C 5.582031 -4.046875 5.59375 -4.003906 5.59375 -3.953125 C 5.601562 -3.910156 5.609375 -3.863281 5.609375 -3.8125 L 5.609375 -0.390625 C 5.609375 -0.335938 5.601562 -0.285156 5.59375 -0.234375 C 5.59375 -0.191406 5.582031 -0.148438 5.5625 -0.109375 C 5.550781 -0.078125 5.53125 -0.0507812 5.5 -0.03125 C 5.476562 -0.0078125 5.441406 0 5.390625 0 C 5.296875 0 5.234375 -0.03125 5.203125 -0.09375 C 5.171875 -0.164062 5.15625 -0.242188 5.15625 -0.328125 Z M 5.15625 -0.78125 "/></g></g></g><g fill="#0c83b8" fill-opacity="1"><g transform="translate(227.519491, 259.708812)"><g><path d="M 4.109375 -4.1875 C 4.148438 -4.175781 4.179688 -4.15625 4.203125 -4.125 C 4.222656 -4.09375 4.234375 -4.0625 4.234375 -4.03125 C 4.234375 -3.976562 4.21875 -3.929688 4.1875 -3.890625 C 4.15625 -3.847656 4.109375 -3.828125 4.046875 -3.828125 C 4.023438 -3.828125 4.007812 -3.828125 4 -3.828125 C 4 -3.835938 3.992188 -3.84375 3.984375 -3.84375 C 3.835938 -3.882812 3.695312 -3.914062 3.5625 -3.9375 C 3.4375 -3.957031 3.296875 -3.96875 3.140625 -3.96875 C 2.921875 -3.96875 2.710938 -3.945312 2.515625 -3.90625 C 2.328125 -3.863281 2.148438 -3.800781 1.984375 -3.71875 C 1.828125 -3.632812 1.6875 -3.523438 1.5625 -3.390625 C 1.445312 -3.253906 1.363281 -3.097656 1.3125 -2.921875 L 1.3125 -0.390625 C 1.3125 -0.285156 1.296875 -0.191406 1.265625 -0.109375 C 1.242188 -0.0351562 1.1875 0 1.09375 0 C 1.039062 0 1 -0.0078125 0.96875 -0.03125 C 0.9375 -0.0507812 0.910156 -0.078125 0.890625 -0.109375 C 0.878906 -0.148438 0.875 -0.191406 0.875 -0.234375 C 0.875 -0.285156 0.875 -0.335938 0.875 -0.390625 L 0.875 -3.90625 C 0.875 -3.988281 0.882812 -4.0625 0.90625 -4.125 C 0.9375 -4.1875 1.003906 -4.21875 1.109375 -4.21875 C 1.191406 -4.21875 1.242188 -4.1875 1.265625 -4.125 C 1.296875 -4.0625 1.3125 -3.988281 1.3125 -3.90625 L 1.3125 -3.265625 C 1.363281 -3.492188 1.460938 -3.675781 1.609375 -3.8125 C 1.753906 -3.945312 1.914062 -4.050781 2.09375 -4.125 C 2.269531 -4.207031 2.453125 -4.257812 2.640625 -4.28125 C 2.828125 -4.3125 2.992188 -4.328125 3.140625 -4.328125 C 3.273438 -4.328125 3.394531 -4.320312 3.5 -4.3125 C 3.601562 -4.300781 3.691406 -4.285156 3.765625 -4.265625 C 3.835938 -4.253906 3.898438 -4.242188 3.953125 -4.234375 C 4.003906 -4.222656 4.054688 -4.207031 4.109375 -4.1875 Z M 4.109375 -4.1875 "/></g></g></g><g fill="#0c83b8" fill-opacity="1"><g transform="translate(233.376978, 259.708812)"><g><path d="M 1.390625 -0.34375 C 1.390625 -0.300781 1.382812 -0.257812 1.375 -0.21875 C 1.375 -0.175781 1.367188 -0.140625 1.359375 -0.109375 C 1.347656 -0.078125 1.328125 -0.0507812 1.296875 -0.03125 C 1.265625 -0.0078125 1.222656 0 1.171875 0 C 1.066406 0 1.003906 -0.03125 0.984375 -0.09375 C 0.960938 -0.15625 0.953125 -0.238281 0.953125 -0.34375 L 0.953125 -3.875 C 0.953125 -3.96875 0.960938 -4.046875 0.984375 -4.109375 C 1.003906 -4.179688 1.066406 -4.21875 1.171875 -4.21875 C 1.265625 -4.21875 1.320312 -4.179688 1.34375 -4.109375 C 1.375 -4.046875 1.390625 -3.972656 1.390625 -3.890625 Z M 0.875 -5.453125 C 0.875 -5.535156 0.898438 -5.601562 0.953125 -5.65625 C 1.015625 -5.71875 1.085938 -5.75 1.171875 -5.75 C 1.253906 -5.75 1.320312 -5.71875 1.375 -5.65625 C 1.4375 -5.601562 1.46875 -5.535156 1.46875 -5.453125 C 1.46875 -5.367188 1.4375 -5.300781 1.375 -5.25 C 1.320312 -5.195312 1.253906 -5.171875 1.171875 -5.171875 C 1.085938 -5.171875 1.015625 -5.195312 0.953125 -5.25 C 0.898438 -5.300781 0.875 -5.367188 0.875 -5.453125 Z M 0.875 -5.453125 "/></g></g></g><g fill="#0c83b8" fill-opacity="1"><g transform="translate(237.128385, 259.708812)"><g><path d="M 3.28125 -4.125 C 3.332031 -4.125 3.375 -4.109375 3.40625 -4.078125 C 3.4375 -4.054688 3.453125 -4.03125 3.453125 -4 C 3.453125 -3.96875 3.4375 -3.9375 3.40625 -3.90625 C 3.375 -3.875 3.332031 -3.859375 3.28125 -3.859375 L 1.453125 -3.859375 L 1.453125 -1.53125 C 1.453125 -1.269531 1.476562 -1.054688 1.53125 -0.890625 C 1.59375 -0.722656 1.671875 -0.59375 1.765625 -0.5 C 1.859375 -0.40625 1.96875 -0.34375 2.09375 -0.3125 C 2.21875 -0.28125 2.351562 -0.265625 2.5 -0.265625 C 2.675781 -0.265625 2.847656 -0.296875 3.015625 -0.359375 C 3.179688 -0.421875 3.375 -0.507812 3.59375 -0.625 C 3.632812 -0.65625 3.675781 -0.671875 3.71875 -0.671875 C 3.769531 -0.671875 3.804688 -0.65625 3.828125 -0.625 C 3.859375 -0.59375 3.875 -0.554688 3.875 -0.515625 C 3.875 -0.441406 3.832031 -0.382812 3.75 -0.34375 C 3.601562 -0.257812 3.46875 -0.191406 3.34375 -0.140625 C 3.226562 -0.0859375 3.117188 -0.046875 3.015625 -0.015625 C 2.910156 0.00390625 2.8125 0.0195312 2.71875 0.03125 C 2.625 0.0507812 2.523438 0.0625 2.421875 0.0625 C 2.222656 0.0625 2.035156 0.0351562 1.859375 -0.015625 C 1.691406 -0.078125 1.546875 -0.171875 1.421875 -0.296875 C 1.296875 -0.421875 1.195312 -0.582031 1.125 -0.78125 C 1.050781 -0.988281 1.015625 -1.238281 1.015625 -1.53125 L 1.015625 -3.859375 L 0.53125 -3.859375 C 0.476562 -3.859375 0.4375 -3.875 0.40625 -3.90625 C 0.382812 -3.9375 0.375 -3.96875 0.375 -4 C 0.375 -4.03125 0.382812 -4.054688 0.40625 -4.078125 C 0.4375 -4.109375 0.476562 -4.125 0.53125 -4.125 L 1.015625 -4.125 L 1.015625 -5.5 C 1.015625 -5.613281 1.035156 -5.6875 1.078125 -5.71875 C 1.128906 -5.75 1.179688 -5.765625 1.234375 -5.765625 C 1.296875 -5.765625 1.347656 -5.75 1.390625 -5.71875 C 1.429688 -5.6875 1.453125 -5.613281 1.453125 -5.5 L 1.453125 -4.125 Z M 3.28125 -4.125 "/></g></g></g><g fill="#0c83b8" fill-opacity="1"><g transform="translate(242.463472, 259.708812)"><g><path d="M 3.234375 1.515625 C 3.609375 1.515625 3.921875 1.472656 4.171875 1.390625 C 4.421875 1.304688 4.625 1.171875 4.78125 0.984375 C 4.9375 0.796875 5.046875 0.546875 5.109375 0.234375 C 5.171875 -0.078125 5.203125 -0.46875 5.203125 -0.9375 C 5.160156 -0.78125 5.09375 -0.648438 5 -0.546875 C 4.914062 -0.441406 4.804688 -0.351562 4.671875 -0.28125 C 4.546875 -0.207031 4.410156 -0.144531 4.265625 -0.09375 C 4.117188 -0.0507812 3.96875 -0.0195312 3.8125 0 C 3.65625 0.0195312 3.503906 0.0351562 3.359375 0.046875 C 3.210938 0.0546875 3.078125 0.0625 2.953125 0.0625 C 2.554688 0.0625 2.222656 0.0234375 1.953125 -0.046875 C 1.679688 -0.117188 1.457031 -0.238281 1.28125 -0.40625 C 1.113281 -0.582031 0.992188 -0.804688 0.921875 -1.078125 C 0.847656 -1.359375 0.8125 -1.707031 0.8125 -2.125 L 0.8125 -3.8125 C 0.8125 -3.863281 0.8125 -3.910156 0.8125 -3.953125 C 0.8125 -4.003906 0.816406 -4.046875 0.828125 -4.078125 C 0.847656 -4.117188 0.875 -4.148438 0.90625 -4.171875 C 0.9375 -4.203125 0.972656 -4.21875 1.015625 -4.21875 C 1.078125 -4.21875 1.117188 -4.203125 1.140625 -4.171875 C 1.171875 -4.148438 1.191406 -4.117188 1.203125 -4.078125 C 1.222656 -4.046875 1.234375 -4.003906 1.234375 -3.953125 C 1.242188 -3.910156 1.25 -3.863281 1.25 -3.8125 L 1.25 -2.125 C 1.25 -1.769531 1.269531 -1.472656 1.3125 -1.234375 C 1.363281 -0.992188 1.453125 -0.800781 1.578125 -0.65625 C 1.703125 -0.519531 1.875 -0.421875 2.09375 -0.359375 C 2.3125 -0.296875 2.597656 -0.265625 2.953125 -0.265625 C 3.160156 -0.265625 3.382812 -0.28125 3.625 -0.3125 C 3.863281 -0.34375 4.085938 -0.394531 4.296875 -0.46875 C 4.515625 -0.550781 4.703125 -0.660156 4.859375 -0.796875 C 5.023438 -0.929688 5.140625 -1.101562 5.203125 -1.3125 L 5.203125 -3.8125 C 5.203125 -3.863281 5.203125 -3.910156 5.203125 -3.953125 C 5.210938 -4.003906 5.222656 -4.046875 5.234375 -4.078125 C 5.253906 -4.117188 5.273438 -4.148438 5.296875 -4.171875 C 5.328125 -4.203125 5.363281 -4.21875 5.40625 -4.21875 C 5.46875 -4.21875 5.507812 -4.203125 5.53125 -4.171875 C 5.5625 -4.148438 5.585938 -4.117188 5.609375 -4.078125 C 5.628906 -4.046875 5.640625 -4.003906 5.640625 -3.953125 C 5.640625 -3.910156 5.640625 -3.863281 5.640625 -3.8125 L 5.640625 -1.109375 C 5.640625 -0.546875 5.59375 -0.078125 5.5 0.296875 C 5.414062 0.671875 5.273438 0.972656 5.078125 1.203125 C 4.890625 1.429688 4.640625 1.59375 4.328125 1.6875 C 4.023438 1.789062 3.660156 1.84375 3.234375 1.84375 C 2.921875 1.84375 2.660156 1.820312 2.453125 1.78125 C 2.242188 1.75 2.066406 1.707031 1.921875 1.65625 C 1.773438 1.613281 1.648438 1.5625 1.546875 1.5 C 1.453125 1.4375 1.375 1.375 1.3125 1.3125 C 1.28125 1.289062 1.265625 1.257812 1.265625 1.21875 C 1.265625 1.164062 1.273438 1.117188 1.296875 1.078125 C 1.328125 1.046875 1.375 1.03125 1.4375 1.03125 C 1.46875 1.03125 1.5 1.039062 1.53125 1.0625 C 1.601562 1.113281 1.6875 1.164062 1.78125 1.21875 C 1.875 1.269531 1.984375 1.316406 2.109375 1.359375 C 2.242188 1.410156 2.398438 1.445312 2.578125 1.46875 C 2.765625 1.5 2.984375 1.515625 3.234375 1.515625 Z M 3.234375 1.515625 "/></g></g></g><g fill="#0c83b8" fill-opacity="1"><g transform="translate(250.30605, 259.708812)"><g/></g></g><g fill="#0c83b8" fill-opacity="1"><g transform="translate(254.244419, 259.708812)"><g><path d="M 7.03125 -1.796875 C 7.03125 -1.421875 6.957031 -1.113281 6.8125 -0.875 C 6.664062 -0.644531 6.46875 -0.460938 6.21875 -0.328125 C 5.96875 -0.203125 5.671875 -0.113281 5.328125 -0.0625 C 4.992188 -0.0195312 4.628906 0 4.234375 0 L 1.0625 0 C 1 0 0.953125 -0.015625 0.921875 -0.046875 C 0.890625 -0.0859375 0.875 -0.132812 0.875 -0.1875 L 0.875 -5.921875 C 0.875 -5.984375 0.894531 -6.03125 0.9375 -6.0625 C 0.976562 -6.101562 1.03125 -6.125 1.09375 -6.125 L 3.609375 -6.125 C 3.878906 -6.125 4.140625 -6.117188 4.390625 -6.109375 C 4.648438 -6.109375 4.894531 -6.09375 5.125 -6.0625 C 5.351562 -6.03125 5.5625 -5.984375 5.75 -5.921875 C 5.945312 -5.859375 6.113281 -5.769531 6.25 -5.65625 C 6.394531 -5.539062 6.503906 -5.394531 6.578125 -5.21875 C 6.660156 -5.050781 6.703125 -4.84375 6.703125 -4.59375 C 6.703125 -4.382812 6.671875 -4.207031 6.609375 -4.0625 C 6.554688 -3.914062 6.484375 -3.789062 6.390625 -3.6875 C 6.304688 -3.59375 6.207031 -3.515625 6.09375 -3.453125 C 5.988281 -3.398438 5.882812 -3.359375 5.78125 -3.328125 C 5.675781 -3.304688 5.582031 -3.289062 5.5 -3.28125 C 5.414062 -3.269531 5.351562 -3.265625 5.3125 -3.265625 L 5.265625 -3.265625 C 5.492188 -3.242188 5.710938 -3.203125 5.921875 -3.140625 C 6.128906 -3.085938 6.3125 -3.003906 6.46875 -2.890625 C 6.632812 -2.785156 6.769531 -2.640625 6.875 -2.453125 C 6.976562 -2.273438 7.03125 -2.054688 7.03125 -1.796875 Z M 6.234375 -4.59375 C 6.234375 -4.78125 6.203125 -4.945312 6.140625 -5.09375 C 6.078125 -5.238281 5.957031 -5.359375 5.78125 -5.453125 C 5.601562 -5.554688 5.359375 -5.632812 5.046875 -5.6875 C 4.734375 -5.738281 4.320312 -5.765625 3.8125 -5.765625 L 1.34375 -5.765625 L 1.34375 -3.40625 L 3.953125 -3.40625 C 4.347656 -3.40625 4.6875 -3.421875 4.96875 -3.453125 C 5.257812 -3.484375 5.5 -3.539062 5.6875 -3.625 C 5.875 -3.71875 6.007812 -3.835938 6.09375 -3.984375 C 6.1875 -4.140625 6.234375 -4.34375 6.234375 -4.59375 Z M 6.5625 -1.796875 C 6.5625 -2.046875 6.5 -2.253906 6.375 -2.421875 C 6.25 -2.585938 6.070312 -2.71875 5.84375 -2.8125 C 5.625 -2.914062 5.351562 -2.988281 5.03125 -3.03125 C 4.707031 -3.082031 4.347656 -3.109375 3.953125 -3.109375 L 1.34375 -3.109375 L 1.34375 -0.359375 L 4.4375 -0.359375 C 4.9375 -0.359375 5.328125 -0.398438 5.609375 -0.484375 C 5.898438 -0.566406 6.113281 -0.671875 6.25 -0.796875 C 6.382812 -0.929688 6.46875 -1.082031 6.5 -1.25 C 6.539062 -1.425781 6.5625 -1.609375 6.5625 -1.796875 Z M 6.5625 -1.796875 "/></g></g></g><g fill="#0c83b8" fill-opacity="1"><g transform="translate(263.395733, 259.708812)"><g><path d="M 3.296875 -4 C 2.953125 -4 2.648438 -3.96875 2.390625 -3.90625 C 2.128906 -3.851562 1.90625 -3.757812 1.71875 -3.625 C 1.53125 -3.5 1.382812 -3.332031 1.28125 -3.125 C 1.1875 -2.914062 1.128906 -2.664062 1.109375 -2.375 L 5.265625 -2.375 L 5.265625 -2.671875 C 5.265625 -2.847656 5.226562 -3.015625 5.15625 -3.171875 C 5.09375 -3.335938 4.984375 -3.484375 4.828125 -3.609375 C 4.671875 -3.734375 4.46875 -3.828125 4.21875 -3.890625 C 3.96875 -3.960938 3.660156 -4 3.296875 -4 Z M 3.015625 -0.265625 C 3.359375 -0.265625 3.660156 -0.285156 3.921875 -0.328125 C 4.179688 -0.378906 4.40625 -0.4375 4.59375 -0.5 C 4.78125 -0.5625 4.929688 -0.625 5.046875 -0.6875 C 5.171875 -0.75 5.265625 -0.804688 5.328125 -0.859375 C 5.359375 -0.859375 5.375 -0.859375 5.375 -0.859375 C 5.414062 -0.859375 5.453125 -0.835938 5.484375 -0.796875 C 5.523438 -0.765625 5.546875 -0.726562 5.546875 -0.6875 C 5.546875 -0.644531 5.523438 -0.609375 5.484375 -0.578125 C 5.453125 -0.546875 5.378906 -0.492188 5.265625 -0.421875 C 5.160156 -0.359375 5.007812 -0.289062 4.8125 -0.21875 C 4.613281 -0.144531 4.363281 -0.078125 4.0625 -0.015625 C 3.769531 0.0351562 3.421875 0.0625 3.015625 0.0625 C 2.585938 0.0625 2.222656 0.0078125 1.921875 -0.09375 C 1.628906 -0.207031 1.390625 -0.359375 1.203125 -0.546875 C 1.015625 -0.742188 0.878906 -0.972656 0.796875 -1.234375 C 0.710938 -1.503906 0.671875 -1.800781 0.671875 -2.125 C 0.671875 -2.539062 0.738281 -2.890625 0.875 -3.171875 C 1.007812 -3.460938 1.191406 -3.691406 1.421875 -3.859375 C 1.660156 -4.023438 1.941406 -4.144531 2.265625 -4.21875 C 2.585938 -4.289062 2.929688 -4.328125 3.296875 -4.328125 C 4.054688 -4.328125 4.625 -4.179688 5 -3.890625 C 5.382812 -3.597656 5.578125 -3.179688 5.578125 -2.640625 C 5.578125 -2.585938 5.570312 -2.53125 5.5625 -2.46875 C 5.5625 -2.40625 5.550781 -2.34375 5.53125 -2.28125 C 5.519531 -2.226562 5.503906 -2.179688 5.484375 -2.140625 C 5.472656 -2.097656 5.460938 -2.078125 5.453125 -2.078125 L 3.828125 -2.078125 L 1.109375 -2.140625 C 1.109375 -1.796875 1.148438 -1.503906 1.234375 -1.265625 C 1.316406 -1.035156 1.4375 -0.84375 1.59375 -0.6875 C 1.757812 -0.539062 1.957031 -0.429688 2.1875 -0.359375 C 2.425781 -0.296875 2.703125 -0.265625 3.015625 -0.265625 Z M 3.015625 -0.265625 "/></g></g></g><g fill="#0c83b8" fill-opacity="1"><g transform="translate(271.018367, 259.708812)"><g><path d="M 3.5625 -3.9375 C 3.125 -3.9375 2.75 -3.90625 2.4375 -3.84375 C 2.125 -3.78125 1.867188 -3.675781 1.671875 -3.53125 C 1.472656 -3.382812 1.328125 -3.191406 1.234375 -2.953125 C 1.148438 -2.722656 1.109375 -2.441406 1.109375 -2.109375 C 1.109375 -1.765625 1.144531 -1.472656 1.21875 -1.234375 C 1.300781 -1.003906 1.425781 -0.816406 1.59375 -0.671875 C 1.769531 -0.535156 2 -0.429688 2.28125 -0.359375 C 2.570312 -0.296875 2.921875 -0.265625 3.328125 -0.265625 C 3.523438 -0.265625 3.71875 -0.273438 3.90625 -0.296875 C 4.101562 -0.316406 4.296875 -0.347656 4.484375 -0.390625 C 4.671875 -0.441406 4.847656 -0.5 5.015625 -0.5625 C 5.191406 -0.632812 5.351562 -0.722656 5.5 -0.828125 L 5.5 -2.875 C 5.476562 -2.976562 5.429688 -3.09375 5.359375 -3.21875 C 5.296875 -3.34375 5.191406 -3.457031 5.046875 -3.5625 C 4.898438 -3.675781 4.707031 -3.765625 4.46875 -3.828125 C 4.226562 -3.898438 3.925781 -3.9375 3.5625 -3.9375 Z M 3.421875 1.484375 C 3.710938 1.484375 3.984375 1.457031 4.234375 1.40625 C 4.492188 1.351562 4.71875 1.269531 4.90625 1.15625 C 5.09375 1.050781 5.238281 0.910156 5.34375 0.734375 C 5.445312 0.566406 5.5 0.363281 5.5 0.125 L 5.5 -0.53125 C 5.34375 -0.414062 5.171875 -0.320312 4.984375 -0.25 C 4.804688 -0.175781 4.625 -0.113281 4.4375 -0.0625 C 4.25 -0.0195312 4.054688 0.0078125 3.859375 0.03125 C 3.671875 0.0507812 3.488281 0.0625 3.3125 0.0625 C 2.894531 0.0625 2.519531 0.03125 2.1875 -0.03125 C 1.863281 -0.101562 1.585938 -0.21875 1.359375 -0.375 C 1.128906 -0.539062 0.957031 -0.765625 0.84375 -1.046875 C 0.726562 -1.328125 0.671875 -1.679688 0.671875 -2.109375 C 0.671875 -2.535156 0.738281 -2.890625 0.875 -3.171875 C 1.007812 -3.460938 1.203125 -3.691406 1.453125 -3.859375 C 1.703125 -4.023438 2 -4.144531 2.34375 -4.21875 C 2.695312 -4.289062 3.085938 -4.328125 3.515625 -4.328125 C 3.890625 -4.328125 4.195312 -4.289062 4.4375 -4.21875 C 4.6875 -4.144531 4.882812 -4.054688 5.03125 -3.953125 C 5.1875 -3.847656 5.296875 -3.734375 5.359375 -3.609375 C 5.429688 -3.484375 5.476562 -3.367188 5.5 -3.265625 C 5.5 -3.328125 5.492188 -3.398438 5.484375 -3.484375 C 5.484375 -3.578125 5.484375 -3.664062 5.484375 -3.75 C 5.484375 -3.875 5.492188 -3.984375 5.515625 -4.078125 C 5.546875 -4.171875 5.597656 -4.21875 5.671875 -4.21875 C 5.734375 -4.21875 5.78125 -4.203125 5.8125 -4.171875 C 5.84375 -4.148438 5.867188 -4.117188 5.890625 -4.078125 C 5.910156 -4.046875 5.921875 -4.003906 5.921875 -3.953125 C 5.929688 -3.910156 5.9375 -3.867188 5.9375 -3.828125 L 5.9375 0.125 C 5.9375 0.707031 5.71875 1.144531 5.28125 1.4375 C 4.84375 1.726562 4.222656 1.875 3.421875 1.875 C 3.148438 1.875 2.910156 1.859375 2.703125 1.828125 C 2.492188 1.804688 2.3125 1.773438 2.15625 1.734375 C 2 1.691406 1.859375 1.640625 1.734375 1.578125 C 1.609375 1.523438 1.492188 1.472656 1.390625 1.421875 C 1.359375 1.410156 1.3125 1.378906 1.25 1.328125 C 1.195312 1.285156 1.171875 1.234375 1.171875 1.171875 C 1.171875 1.097656 1.191406 1.046875 1.234375 1.015625 C 1.285156 0.992188 1.328125 0.984375 1.359375 0.984375 C 1.390625 0.984375 1.425781 0.992188 1.46875 1.015625 C 1.507812 1.035156 1.554688 1.0625 1.609375 1.09375 C 1.671875 1.125 1.738281 1.15625 1.8125 1.1875 C 1.882812 1.226562 1.960938 1.257812 2.046875 1.28125 C 2.191406 1.332031 2.375 1.378906 2.59375 1.421875 C 2.820312 1.460938 3.097656 1.484375 3.421875 1.484375 Z M 3.421875 1.484375 "/></g></g></g><g fill="#0c83b8" fill-opacity="1"><g transform="translate(279.240351, 259.708812)"><g><path d="M 1.390625 -0.34375 C 1.390625 -0.300781 1.382812 -0.257812 1.375 -0.21875 C 1.375 -0.175781 1.367188 -0.140625 1.359375 -0.109375 C 1.347656 -0.078125 1.328125 -0.0507812 1.296875 -0.03125 C 1.265625 -0.0078125 1.222656 0 1.171875 0 C 1.066406 0 1.003906 -0.03125 0.984375 -0.09375 C 0.960938 -0.15625 0.953125 -0.238281 0.953125 -0.34375 L 0.953125 -3.875 C 0.953125 -3.96875 0.960938 -4.046875 0.984375 -4.109375 C 1.003906 -4.179688 1.066406 -4.21875 1.171875 -4.21875 C 1.265625 -4.21875 1.320312 -4.179688 1.34375 -4.109375 C 1.375 -4.046875 1.390625 -3.972656 1.390625 -3.890625 Z M 0.875 -5.453125 C 0.875 -5.535156 0.898438 -5.601562 0.953125 -5.65625 C 1.015625 -5.71875 1.085938 -5.75 1.171875 -5.75 C 1.253906 -5.75 1.320312 -5.71875 1.375 -5.65625 C 1.4375 -5.601562 1.46875 -5.535156 1.46875 -5.453125 C 1.46875 -5.367188 1.4375 -5.300781 1.375 -5.25 C 1.320312 -5.195312 1.253906 -5.171875 1.171875 -5.171875 C 1.085938 -5.171875 1.015625 -5.195312 0.953125 -5.25 C 0.898438 -5.300781 0.875 -5.367188 0.875 -5.453125 Z M 0.875 -5.453125 "/></g></g></g><g fill="#0c83b8" fill-opacity="1"><g transform="translate(282.99177, 259.708812)"><g><path d="M 5.75 -0.390625 C 5.75 -0.347656 5.742188 -0.300781 5.734375 -0.25 C 5.722656 -0.207031 5.707031 -0.164062 5.6875 -0.125 C 5.675781 -0.09375 5.65625 -0.0625 5.625 -0.03125 C 5.601562 -0.0078125 5.566406 0 5.515625 0 C 5.460938 0 5.421875 -0.0078125 5.390625 -0.03125 C 5.367188 -0.0625 5.347656 -0.09375 5.328125 -0.125 C 5.316406 -0.164062 5.3125 -0.207031 5.3125 -0.25 C 5.3125 -0.300781 5.3125 -0.347656 5.3125 -0.390625 L 5.3125 -2.296875 C 5.3125 -2.585938 5.289062 -2.835938 5.25 -3.046875 C 5.207031 -3.253906 5.125 -3.429688 5 -3.578125 C 4.875 -3.722656 4.703125 -3.828125 4.484375 -3.890625 C 4.265625 -3.960938 3.976562 -4 3.625 -4 C 3.414062 -4 3.1875 -3.976562 2.9375 -3.9375 C 2.695312 -3.90625 2.46875 -3.847656 2.25 -3.765625 C 2.03125 -3.679688 1.832031 -3.566406 1.65625 -3.421875 C 1.488281 -3.273438 1.375 -3.09375 1.3125 -2.875 L 1.3125 -0.390625 C 1.3125 -0.347656 1.304688 -0.300781 1.296875 -0.25 C 1.296875 -0.207031 1.289062 -0.164062 1.28125 -0.125 C 1.269531 -0.09375 1.25 -0.0625 1.21875 -0.03125 C 1.1875 -0.0078125 1.148438 0 1.109375 0 C 1.054688 0 1.015625 -0.0078125 0.984375 -0.03125 C 0.953125 -0.0625 0.925781 -0.09375 0.90625 -0.125 C 0.894531 -0.164062 0.882812 -0.207031 0.875 -0.25 C 0.875 -0.300781 0.875 -0.347656 0.875 -0.390625 L 0.875 -3.953125 C 0.875 -4.015625 0.882812 -4.070312 0.90625 -4.125 C 0.9375 -4.1875 1.003906 -4.21875 1.109375 -4.21875 C 1.203125 -4.21875 1.257812 -4.191406 1.28125 -4.140625 C 1.300781 -4.085938 1.3125 -4.023438 1.3125 -3.953125 L 1.3125 -3.265625 C 1.414062 -3.503906 1.554688 -3.691406 1.734375 -3.828125 C 1.921875 -3.972656 2.125 -4.078125 2.34375 -4.140625 C 2.5625 -4.210938 2.78125 -4.257812 3 -4.28125 C 3.226562 -4.3125 3.4375 -4.328125 3.625 -4.328125 C 4.019531 -4.328125 4.351562 -4.289062 4.625 -4.21875 C 4.894531 -4.15625 5.113281 -4.039062 5.28125 -3.875 C 5.445312 -3.71875 5.566406 -3.507812 5.640625 -3.25 C 5.710938 -3 5.75 -2.679688 5.75 -2.296875 Z M 5.75 -0.390625 "/></g></g></g><g fill="#0c83b8" fill-opacity="1"><g transform="translate(290.955324, 259.708812)"><g><path d="M 5.453125 -1.15625 C 5.453125 -1.34375 5.382812 -1.488281 5.25 -1.59375 C 5.113281 -1.707031 4.929688 -1.785156 4.703125 -1.828125 C 4.484375 -1.878906 4.226562 -1.910156 3.9375 -1.921875 C 3.644531 -1.941406 3.347656 -1.953125 3.046875 -1.953125 C 2.753906 -1.960938 2.460938 -1.976562 2.171875 -2 C 1.890625 -2.03125 1.632812 -2.082031 1.40625 -2.15625 C 1.175781 -2.226562 0.992188 -2.335938 0.859375 -2.484375 C 0.722656 -2.628906 0.65625 -2.820312 0.65625 -3.0625 C 0.65625 -3.3125 0.722656 -3.515625 0.859375 -3.671875 C 0.992188 -3.835938 1.171875 -3.96875 1.390625 -4.0625 C 1.617188 -4.164062 1.875 -4.234375 2.15625 -4.265625 C 2.4375 -4.304688 2.726562 -4.328125 3.03125 -4.328125 C 3.507812 -4.328125 3.953125 -4.285156 4.359375 -4.203125 C 4.773438 -4.128906 5.160156 -4 5.515625 -3.8125 C 5.554688 -3.789062 5.582031 -3.765625 5.59375 -3.734375 C 5.601562 -3.710938 5.613281 -3.6875 5.625 -3.65625 C 5.625 -3.601562 5.609375 -3.554688 5.578125 -3.515625 C 5.546875 -3.484375 5.515625 -3.46875 5.484375 -3.46875 C 5.460938 -3.46875 5.445312 -3.472656 5.4375 -3.484375 C 5.125 -3.640625 4.769531 -3.765625 4.375 -3.859375 C 3.976562 -3.953125 3.535156 -4 3.046875 -4 C 2.796875 -4 2.550781 -3.984375 2.3125 -3.953125 C 2.082031 -3.921875 1.875 -3.867188 1.6875 -3.796875 C 1.507812 -3.722656 1.363281 -3.625 1.25 -3.5 C 1.144531 -3.382812 1.09375 -3.238281 1.09375 -3.0625 C 1.09375 -2.875 1.160156 -2.726562 1.296875 -2.625 C 1.429688 -2.53125 1.613281 -2.460938 1.84375 -2.421875 C 2.070312 -2.378906 2.328125 -2.351562 2.609375 -2.34375 C 2.898438 -2.332031 3.191406 -2.316406 3.484375 -2.296875 C 3.785156 -2.285156 4.082031 -2.265625 4.375 -2.234375 C 4.664062 -2.210938 4.921875 -2.160156 5.140625 -2.078125 C 5.367188 -2.003906 5.550781 -1.894531 5.6875 -1.75 C 5.820312 -1.601562 5.890625 -1.40625 5.890625 -1.15625 C 5.890625 -0.925781 5.820312 -0.734375 5.6875 -0.578125 C 5.550781 -0.429688 5.363281 -0.3125 5.125 -0.21875 C 4.894531 -0.125 4.628906 -0.0507812 4.328125 0 C 4.023438 0.0390625 3.710938 0.0625 3.390625 0.0625 C 3.191406 0.0625 2.976562 0.0546875 2.75 0.046875 C 2.519531 0.0351562 2.289062 0.015625 2.0625 -0.015625 C 1.832031 -0.0546875 1.613281 -0.113281 1.40625 -0.1875 C 1.195312 -0.257812 1.015625 -0.359375 0.859375 -0.484375 C 0.804688 -0.523438 0.78125 -0.570312 0.78125 -0.625 C 0.78125 -0.664062 0.789062 -0.703125 0.8125 -0.734375 C 0.84375 -0.773438 0.878906 -0.796875 0.921875 -0.796875 C 0.953125 -0.796875 0.972656 -0.789062 0.984375 -0.78125 C 1.140625 -0.664062 1.304688 -0.578125 1.484375 -0.515625 C 1.660156 -0.453125 1.847656 -0.398438 2.046875 -0.359375 C 2.242188 -0.328125 2.453125 -0.300781 2.671875 -0.28125 C 2.890625 -0.269531 3.113281 -0.265625 3.34375 -0.265625 C 3.613281 -0.265625 3.875 -0.28125 4.125 -0.3125 C 4.382812 -0.34375 4.613281 -0.390625 4.8125 -0.453125 C 5.007812 -0.523438 5.164062 -0.613281 5.28125 -0.71875 C 5.394531 -0.832031 5.453125 -0.976562 5.453125 -1.15625 Z M 5.453125 -1.15625 "/></g></g></g></svg>